<svg id="e2BKTtY19Ml1" xmlns="http://www.w3.org/2000/svg" xmlns:xlink="http://www.w3.org/1999/xlink" viewBox="0 0 500 500" shape-rendering="geometricPrecision" text-rendering="geometricPrecision">
<style><![CDATA[
#e2BKTtY19Ml47_to {animation: e2BKTtY19Ml47_to__to 3000ms linear infinite normal forwards}@keyframes e2BKTtY19Ml47_to__to { 0% {transform: translate(394.806849px,198.744771px)} 50% {transform: translate(395.238626px,197.698297px)} 100% {transform: translate(394.806834px,198.744731px)}} #e2BKTtY19Ml57_to {animation: e2BKTtY19Ml57_to__to 3000ms linear infinite normal forwards}@keyframes e2BKTtY19Ml57_to__to { 0% {transform: translate(413.669996px,216.910149px)} 50% {transform: translate(413.086272px,214.755388px)} 100% {transform: translate(413.66999px,216.910148px)}} #e2BKTtY19Ml67_tr {animation: e2BKTtY19Ml67_tr__tr 3000ms linear infinite normal forwards}@keyframes e2BKTtY19Ml67_tr__tr { 0% {transform: translate(369.825px,110.757px) rotate(-1.689016deg)} 50% {transform: translate(369.825px,110.757px) rotate(1.592031deg)} 100% {transform: translate(369.825px,110.757px) rotate(0deg)}} #e2BKTtY19Ml141_to {animation: e2BKTtY19Ml141_to__to 3000ms linear infinite normal forwards}@keyframes e2BKTtY19Ml141_to__to { 0% {transform: translate(126.07px,104.177061px)} 50% {transform: translate(126.903076px,102.873936px)} 100% {transform: translate(126.07px,104.177061px)}} #e2BKTtY19Ml190_to {animation: e2BKTtY19Ml190_to__to 3000ms linear infinite normal forwards}@keyframes e2BKTtY19Ml190_to__to { 0% {transform: translate(97.340083px,195.230348px)} 50% {transform: translate(98.145916px,194.326399px)} 100% {transform: translate(97.340083px,195.230337px)}} #e2BKTtY19Ml330_tr {animation: e2BKTtY19Ml330_tr__tr 3000ms linear infinite normal forwards}@keyframes e2BKTtY19Ml330_tr__tr { 0% {transform: translate(262.39px,144.22px) rotate(0deg)} 50% {transform: translate(262.39px,144.22px) rotate(90deg)} 100% {transform: translate(262.39px,144.22px) rotate(180deg)}} #e2BKTtY19Ml332_tr {animation: e2BKTtY19Ml332_tr__tr 3000ms linear infinite normal forwards}@keyframes e2BKTtY19Ml332_tr__tr { 0% {transform: translate(231.95px,181.86px) rotate(0deg)} 50% {transform: translate(231.95px,181.86px) rotate(-90deg)} 100% {transform: translate(231.95px,181.86px) rotate(-180deg)}}
]]></style>
<g transform="translate(-.724846 0)"><rect width="33.12" height="0.25" rx="0" ry="0" transform="translate(416.779999 398.48999)" fill="#ebebeb"/><rect width="8.69" height="0.25" rx="0" ry="0" transform="translate(322.529999 401.209991)" fill="#ebebeb"/><rect width="19.19" height="0.25" rx="0" ry="0" transform="translate(396.589996 389.209991)" fill="#ebebeb"/><rect width="43.19" height="0.25" rx="0" ry="0" transform="translate(52.459999 390.890015)" fill="#ebebeb"/><rect width="6.33" height="0.25" rx="0" ry="0" transform="translate(104.559998 390.890015)" fill="#ebebeb"/><rect width="93.68" height="0.25" rx="0" ry="0" transform="translate(131.470001 395.109985)" fill="#ebebeb"/><rect width="10.33" height="4.11" rx="0" ry="0" transform="matrix(.871299-.490752 0.490752 0.871299 62.785496 238.476715)" fill="#e0e0e0"/><rect width="6.62" height="11.33" rx="0" ry="0" transform="translate(87.029999 285.070007)" fill="#e0e0e0"/><path d="M95.88,286.49l-4.81,2.92c-1.127608.686276-2.488073.87789-3.76137.529767s-2.347033-1.205253-2.96863-2.369767L61,243.73c-1.201862-2.24793-.432682-5.043352,1.75-6.36v0c2.172571-1.322884,5.000251-.716953,6.44,1.38l28.15,40.92c.750467,1.086314,1.019255,2.434225.742865,3.725305s-1.073442,2.410821-2.202865,3.094695Z" fill="#c6c6c6"/><path d="M70.18,239.62l-1.74-4.32c-.209363-.527065-.195546-1.116583.038279-1.633261s.667581-.91615,1.201721-1.106739l49-17.17c1.051088-.3689,2.206217.155758,2.62,1.19v0c.420938,1.032924-.052232,2.213636-1.07,2.67L73,240.74c-.520184.244495-1.118351.262839-1.652539.050679s-.956773-.635909-1.167461-1.170679Z" fill="#c6c6c6"/><path d="M121.37,218.32v0c-1.925327-.495894-3.247526-2.262984-3.18-4.25l.22-6l.56-2l3.35-5.14c.245078-.374587.637545-.627638,1.079888-.696277s.893041.053575,1.240112.336277v0l-2.59,6.87-.35,1.32-.17,5.42c-.012898.417042.265656.787061.67.89v0c.399928.099788.815535-.091391,1-.46l2.47-4.82.34-1.33l1-7.26v0c.438919-.077672.890164.034885,1.241185.309597s.568726.685681.598815,1.130403l.41,6.48-.56,2-2.56,5c-.886874,1.751341-2.862131,2.662361-4.77,2.2Z" fill="#c6c6c6"/><g opacity="0.7"><path d="M91.12,277.76c-1.635787-.930407-3.691629-.653003-5.022316.677684s-1.608091,3.386529-.677684,5.022316l5.7-5.7Z" fill="#fff"/><path d="M87,285.07c1.633829.906206,3.67023.621193,4.992488-.698746s1.610848-3.355837.707512-4.991254L87,285.07Z" fill="#fff"/></g><g opacity="0.7"><path d="M75.48,233.31c-.328436-.275149-.720226-.46417-1.14-.55-.663846-.140922-1.35647-.008137-1.921131.368303s-.953625.964716-1.078869,1.631697c-.084813.419713-.057215.854384.08,1.26l4.06-2.71Z" fill="#fff"/><path d="M72.23,237.15c.328436.275149.720226.46417,1.14.55.657007.131619,1.339351-.006014,1.893967-.382024s.935075-.958923,1.056033-1.617976c.084813-.419713.057215-.854384-.08-1.26l-4.01,2.71Z" fill="#fff"/></g><rect width="13.97" height="7.69" rx="0" ry="0" transform="translate(83.370003 357.420013)" fill="#e0e0e0"/><path d="M126.07,382.65h-71.43l1.65-7.94c1.47916-7.139893,7.768499-12.259899,15.06-12.26h38c7.291501.000101,13.58084,5.120107,15.06,12.26l1.66,7.94Z" fill="#c6c6c6"/><path d="M93.5,359.09h-7.57c-6.1,0-11-4-10.59-8.83l3.79-50.39c.33-4.41,5-7.85,10.58-7.85v0c5.62,0,10.26,3.44,10.59,7.85l3.78,50.39c.36,4.79-4.48,8.83-10.58,8.83Z" fill="#c6c6c6"/><g opacity="0.7"><path d="M92.56,341.8c-2.402294-1.344186-5.405232-.928265-7.351749,1.018251s-2.362437,4.949455-1.018251,7.351749l8.37-8.37Z" fill="#fff"/><path d="M86.56,352.54c2.402294,1.344186,5.405232.928265,7.351749-1.018251s2.362437-4.949455,1.018251-7.351749l-8.37,8.37Z" fill="#fff"/></g><g transform="translate(0 0.000001)"><circle r="19.55" transform="translate(430.089996 309.600006)" fill="#c6c6c6"/><path d="M430.15,329.59c-11.045695,0-20-8.954305-20-20s8.954305-20,20-20v.88c-6.827346,0-13.136073,3.642345-16.549746,9.555s-3.413673,13.197346,0,19.11s9.7224,9.555,16.549746,9.555v.9Z" fill="#fff"/><path d="M430.15,329.59v-.88c6.827346,0,13.136073-3.642345,16.549746-9.555s3.413673-13.197346,0-19.11-9.7224-9.555-16.549746-9.555v-.88c11.045695,0,20,8.954305,20,20s-8.954305,20-20,20v-.02Z" fill="#fff"/><path d="M440.36,309.6h-.88c0-6.47-3.28-15.14-9.57-19.17l.48-.75c6.55,4.21,9.97,13.21,9.97,19.92Z" fill="#fff"/><path d="M430.39,328.93l-.48-.74c6.29-4,9.57-12.7,9.57-19.18h.88c0,6.71-3.42,15.71-9.97,19.92Z" fill="#fff"/><path d="M420.82,309.6h-.88c0-6.72,3.42-15.72,10-19.92l.48.74c-6.32,4.03-9.6,12.7-9.6,19.18Z" fill="#fff"/><path d="M429.91,328.92c-6.55-4.2-10-13.2-10-19.92h.88c0,6.48,3.28,15.15,9.57,19.18l-.45.74Z" fill="#fff"/><rect width="0.88" height="39.1" rx="0" ry="0" transform="translate(429.709991 290.049988)" fill="#fff"/><rect width="33.09" height="0.88" rx="0" ry="0" transform="translate(413.600006 298.75)" fill="#fff"/><rect width="39.08" height="0.88" rx="0" ry="0" transform="translate(410.609985 309.48999)" fill="#fff"/><rect width="32.22" height="0.88" rx="0" ry="0" transform="translate(414.040009 320.230011)" fill="#fff"/></g><path d="M83.94,79.48c-.586078-.538661-1.211109-1.033338-1.87-1.48l.77-3.31c-.817247-.497678-1.669478-.935491-2.55-1.31l-2.24,2.55c-1.493517-.544445-3.054807-.88093-4.64-1l-1-3.25c-.958731-.018233-1.917595.028541-2.87.14l-.66,3.33c-1.568613.271129-3.09275.755623-4.53,1.44l-2.47-2.32c-.840434.465649-1.648893.986804-2.42,1.56L60.56,79c-.606404.514555-1.177681,1.069129-1.71,1.66-.532569.58774-1.026916,1.209014-1.48,1.86l-3.31-.77c-.491792.820532-.929393,1.67235-1.31,2.55l2.55,2.24c-.544486,1.496955-.880959,3.061552-1,4.65l-3.25,1c-.018479.958735.028296,1.917616.14,2.87l3.33.67c.282471,1.574126.780488,3.101825,1.48,4.54l-2.32,2.48c.456331.840574.974421,1.64612,1.55,2.41l3.22-1.09c.508256.611969,1.059665,1.186771,1.65,1.72.589155.535045,1.213922,1.029514,1.87,1.48l-.78,3.3c.822677.497071,1.677952.938073,2.56,1.32L66,109.34c1.49996.533981,3.063131.870146,4.65,1l1,3.24c.958802.023472,1.918035-.02332,2.87-.14l.67-3.32c1.567492-.280822,3.090788-.768411,4.53-1.45l2.4,2.33c.838436-.459934,1.643729-.977861,2.41-1.55l-1.09-3.22c.609554-.510954,1.184175-1.062189,1.72-1.65.53266-.591174,1.027-1.21578,1.48-1.87l3.3.77c.50089-.817071.942041-1.669294,1.32-2.55l-2.55-2.24c.539735-1.498319.876067-3.062261,1-4.65l3.25-1c.018479-.958735-.028296-1.917616-.14-2.87l-3.33-.66c-.293659-1.562966-.794756-3.079709-1.49-4.51l2.32-2.47c-.459868-.841667-.977788-1.650289-1.55-2.42L85.55,81.2c-.497872-.608453-1.03573-1.183059-1.61-1.72Zm-4.56,20c-3.586638,3.948402-9.694749,4.242352-13.643964.656609s-4.24455-9.693788-.659701-13.643816s9.692825-4.246746,13.643665-.662793c1.910486,1.723385,3.054513,4.137723,3.178412,6.707677s-.78257,5.083148-2.518412,6.982323v-.04Z" fill="#c6c6c6"/><path d="M113.68,86.38c-.31-.27-.62-.52-.94-.76L113.6,82c-.46-.26-.92-.5-1.39-.71l-2.47,2.82c-.761749-.257517-1.550032-.428591-2.35-.51L106.3,80c-.521104-.003287-1.041966.023424-1.56.08L104,83.73c-.787856.163097-1.555685.411216-2.29.74L99,81.9c-.44.26-.88.54-1.31.85L98.9,86.3c-.301343.26457-.588414.544965-.86.84-.27.31-.52.62-.76.94l-3.65-.86c-.26.46-.5.92-.71,1.39l2.82,2.47c-.257517.761749-.428591,1.550032-.51,2.35l-3.59,1.09c-.003287.521104.023424,1.041966.08,1.56l3.67.73c.163097.787856.411216,1.555685.74,2.29l-2.57,2.74c.26.44.54.88.84,1.31l3.56-1.21c.26457.301343.544965.588414.84.86.3.27.62.52.94.76l-.86,3.65c.46.26.92.5,1.39.71l2.47-2.82c.761749.257517,1.550032.428591,2.35.51l1.09,3.59c.521104.003287,1.041966-.023424,1.56-.08l.73-3.67c.787856-.163097,1.555685-.411216,2.29-.74l2.73,2.57c.452141-.25874.889488-.542515,1.31-.85l-1.2-3.55c.301343-.26457.588414-.544965.86-.84.27-.31.52-.62.76-.94l3.65.86c.26-.46.5-.92.71-1.39l-2.82-2.47c.257517-.761749.428591-1.550032.51-2.35l3.59-1.09c.003287-.521104-.023424-1.041966-.08-1.56l-3.67-.73c-.163097-.787856-.411216-1.555685-.74-2.29l2.57-2.73c-.25874-.452141-.542515-.889488-.85-1.31l-3.55,1.2c-.271049-.30187-.55813-.588951-.86-.86ZM111.08,99c-1.779778,1.96272-4.566704,2.659913-7.061008,1.766423s-4.204669-3.20167-4.333411-5.848046s1.349495-5.109676,3.745292-6.241063s5.237237-.708007,7.199127,1.072686c2.677756,2.430443,2.879194,6.571111.45,9.25Z" fill="#f0f0f0"/><path d="M113.68,86.38c-.31-.27-.62-.52-.94-.76L113.6,82c-.46-.26-.92-.5-1.39-.71l-2.47,2.82c-.761749-.257517-1.550032-.428591-2.35-.51L106.3,80c-.521104-.003287-1.041966.023424-1.56.08L104,83.73c-.787856.163097-1.555685.411216-2.29.74L99,81.9c-.44.26-.88.54-1.31.85L98.9,86.3c-.301343.26457-.588414.544965-.86.84-.27.31-.52.62-.76.94l-3.65-.86c-.26.46-.5.92-.71,1.39l2.82,2.47c-.257517.761749-.428591,1.550032-.51,2.35l-3.59,1.09c-.003287.521104.023424,1.041966.08,1.56l3.67.73c.163097.787856.411216,1.555685.74,2.29l-2.57,2.74c.26.44.54.88.84,1.31l3.56-1.21c.26457.301343.544965.588414.84.86.3.27.62.52.94.76l-.86,3.65c.46.26.92.5,1.39.71l2.47-2.82c.761749.257517,1.550032.428591,2.35.51l1.09,3.59c.521104.003287,1.041966-.023424,1.56-.08l.73-3.67c.787856-.163097,1.555685-.411216,2.29-.74l2.73,2.57c.452141-.25874.889488-.542515,1.31-.85l-1.2-3.55c.301343-.26457.588414-.544965.86-.84.27-.31.52-.62.76-.94l3.65.86c.26-.46.5-.92.71-1.39l-2.82-2.47c.257517-.761749.428591-1.550032.51-2.35l3.59-1.09c.003287-.521104-.023424-1.041966-.08-1.56l-3.67-.73c-.163097-.787856-.411216-1.555685-.74-2.29l2.57-2.73c-.25874-.452141-.542515-.889488-.85-1.31l-3.55,1.2c-.271049-.30187-.55813-.588951-.86-.86ZM111.08,99c-1.779778,1.96272-4.566704,2.659913-7.061008,1.766423s-4.204669-3.20167-4.333411-5.848046s1.349495-5.109676,3.745292-6.241063s5.237237-.708007,7.199127,1.072686c2.677756,2.430443,2.879194,6.571111.45,9.25Z" opacity="0.5" fill="#c6c6c6"/><path d="M437.16,84.43c-.298886-.270699-.612711-.524431-.94-.76l.85-3.66c-.447441-.26032-.908057-.497304-1.38-.71l-2.47,2.82c-.763064-.252736-1.550817-.423695-2.35-.51L429.78,78c-.52,0-1,0-1.56.08l-.73,3.68c-.787526.159652-1.555368.404422-2.29.73l-2.74-2.57c-.44.26-.88.54-1.31.85l1.21,3.55c-.301412.268015-.588478.551743-.86.85-.27.3-.52.61-.76.93l-3.65-.85c-.26032.447441-.497304.908057-.71,1.38l2.82,2.48c-.25952.761194-.430644,1.549707-.51,2.35l-3.59,1.08c-.003287.521104.023424,1.041966.08,1.56l3.67.73c.163097.787856.411216,1.555685.74,2.29L417,99.88c.26.45.54.88.84,1.31l3.56-1.21c.262006.303707.542542.590921.84.86.3.27.62.52.94.76l-.86,3.65c.44977.262331.913824.499366,1.39.71l2.47-2.82c.761749.257517,1.550032.428591,2.35.51l1.09,3.59c.521104.003287,1.041966-.023424,1.56-.08l.73-3.67c.787856-.163097,1.555685-.411216,2.29-.74l2.73,2.57c.45-.26.89-.54,1.31-.84l-1.2-3.56c.301343-.26457.588414-.544965.86-.84.27-.3.52-.62.76-.94l3.65.86c.260393-.450826.497374-.914775.71-1.39l-2.82-2.47c.257517-.761749.428591-1.550032.51-2.35l3.59-1.09c0-.52,0-1-.08-1.55l-3.67-.74c-.163097-.787856-.411216-1.555685-.74-2.29l2.57-2.73c-.25874-.452141-.542515-.889488-.85-1.31L438,85.28c-.262114-.300468-.542655-.584349-.84-.85ZM434.56,97c-1.779778,1.96272-4.566704,2.659913-7.061008,1.766423s-4.204669-3.20167-4.333411-5.848046s1.349495-5.109676,3.745292-6.241063s5.237237-.708007,7.199127,1.072686c2.677756,2.430443,2.879194,6.571111.45,9.25Z" fill="#f0f0f0"/><path d="M437.16,84.43c-.298886-.270699-.612711-.524431-.94-.76l.85-3.66c-.447441-.26032-.908057-.497304-1.38-.71l-2.47,2.82c-.763064-.252736-1.550817-.423695-2.35-.51L429.78,78c-.52,0-1,0-1.56.08l-.73,3.68c-.787526.159652-1.555368.404422-2.29.73l-2.74-2.57c-.44.26-.88.54-1.31.85l1.21,3.55c-.301412.268015-.588478.551743-.86.85-.27.3-.52.61-.76.93l-3.65-.85c-.26032.447441-.497304.908057-.71,1.38l2.82,2.48c-.25952.761194-.430644,1.549707-.51,2.35l-3.59,1.08c-.003287.521104.023424,1.041966.08,1.56l3.67.73c.163097.787856.411216,1.555685.74,2.29L417,99.88c.26.45.54.88.84,1.31l3.56-1.21c.262006.303707.542542.590921.84.86.3.27.62.52.94.76l-.86,3.65c.44977.262331.913824.499366,1.39.71l2.47-2.82c.761749.257517,1.550032.428591,2.35.51l1.09,3.59c.521104.003287,1.041966-.023424,1.56-.08l.73-3.67c.787856-.163097,1.555685-.411216,2.29-.74l2.73,2.57c.45-.26.89-.54,1.31-.84l-1.2-3.56c.301343-.26457.588414-.544965.86-.84.27-.3.52-.62.76-.94l3.65.86c.260393-.450826.497374-.914775.71-1.39l-2.82-2.47c.257517-.761749.428591-1.550032.51-2.35l3.59-1.09c0-.52,0-1-.08-1.55l-3.67-.74c-.163097-.787856-.411216-1.555685-.74-2.29l2.57-2.73c-.25874-.452141-.542515-.889488-.85-1.31L438,85.28c-.262114-.300468-.542655-.584349-.84-.85ZM434.56,97c-1.779778,1.96272-4.566704,2.659913-7.061008,1.766423s-4.204669-3.20167-4.333411-5.848046s1.349495-5.109676,3.745292-6.241063s5.237237-.708007,7.199127,1.072686c2.677756,2.430443,2.879194,6.571111.45,9.25Z" opacity="0.5" fill="#c6c6c6"/><rect width="500" height="0.25" rx="0" ry="0" transform="translate(0 382.399994)" fill="#ebebeb"/></g><g><ellipse rx="193.89" ry="11.32" transform="translate(250 415.690002)" fill="#c6c6c6"/></g><g><g id="e2BKTtY19Ml47_to" transform="translate(394.806849,198.744771)"><g transform="translate(0,0)"><g transform="translate(-394.688965-198.718369)"><path d="M389.27,181.78l-3.15,1.44c-.949318.431354-1.369945,1.550043-.94,2.5v0c.292383.638791.918124,1.059814,1.62,1.09l12.64,27.74c.499108,1.091325,1.786376,1.574051,2.88,1.08l.77-.36c.526041-.237662.935713-.675119,1.138394-1.215602s.181667-1.139448-.058394-1.664398l-12.64-27.73c.435942-.554984.528359-1.305871.24-1.95v0c-.439107-.941161-1.552547-1.35536-2.5-.93Z" fill="#287acf"/><path d="M389.27,181.78l-3.15,1.44c-.949318.431354-1.369945,1.550043-.94,2.5v0c.292383.638791.918124,1.059814,1.62,1.09l12.64,27.74c.499108,1.091325,1.786376,1.574051,2.88,1.08l.77-.36c.526041-.237662.935713-.675119,1.138394-1.215602s.181667-1.139448-.058394-1.664398l-12.64-27.73c.435942-.554984.528359-1.305871.24-1.95v0c-.439107-.941161-1.552547-1.35536-2.5-.93Z" opacity="0.6" fill="#fff"/><path d="M385.23,184.08c.993741-.023142,1.967519-.28373,2.84-.76.931747-.344946,1.765685-.9112,2.43-1.65-.41069-.102878-.844082-.06412-1.23.11l-3.15,1.44c-.386137.17667-.700199.480145-.89.86Z" fill="#287acf"/><path d="M395.12,198.79c-.82.37-1.57.46-1.7.21l6.92,15.18c.13093.290722.372177.517384.670489.629955s.629159.101792.919511-.029955l.78-.36c.293279-.130859.521867-.373813.63463-.674514s.100289-.634053-.03463-.925486l-6.92-15.18c.11.27-.46.78-1.27,1.15Z" fill="#287acf"/><path d="M396.4,197.63c.12.26-.46.78-1.28,1.16s-1.59.47-1.71.2.45-.78,1.27-1.16s1.59-.46,1.72-.2Z" fill="#287acf"/><path d="M396.4,197.63c.12.26-.46.78-1.28,1.16s-1.59.47-1.71.2.45-.78,1.27-1.16s1.59-.46,1.72-.2Z" opacity="0.3"/><g opacity="0.8"><path d="M387.77,186.65l12.54,27.54c.110457.243005.396995.350457.64.24s.350457-.396995.24-.64l-12.54-27.54c-.110457-.243005-.396995-.350457-.64-.24s-.350457.396995-.24.64Z" fill="#fff"/></g></g></g></g><g id="e2BKTtY19Ml57_to" transform="translate(413.669996,216.910149)"><g transform="translate(-0.003828,0.000017)"><g transform="translate(-413.871735-216.855042)"><path d="M425.26,224.49c-.69615-4.626291-4.116555-8.374517-8.66-9.49v-13c1.065175-.254127,1.817551-1.204933,1.82-2.3v0c0-.628563-.249696-1.231382-.694157-1.675843s-1.04728-.694157-1.675843-.694157h-4.35c-.628563,0-1.231382.249696-1.675843.694157s-.694157,1.04728-.694157,1.675843v0c-.001212,1.096341.752743,2.049143,1.82,2.3v13c-4.380971,1.061616-7.737731,4.584917-8.586135,9.012122s.968008,8.941863,4.646135,11.547878c.763519.538179,1.675883.824822,2.61.82h8.11c.926017.0023,1.830297-.280506,2.59-.81c3.545512-2.501942,5.379042-6.787914,4.74-11.08Z" fill="#287acf"/><path d="M425.26,224.49c-.69615-4.626291-4.116555-8.374517-8.66-9.49v-13c1.065175-.254127,1.817551-1.204933,1.82-2.3v0c0-.628563-.249696-1.231382-.694157-1.675843s-1.04728-.694157-1.675843-.694157h-4.35c-.628563,0-1.231382.249696-1.675843.694157s-.694157,1.04728-.694157,1.675843v0c-.001212,1.096341.752743,2.049143,1.82,2.3v13c-4.380971,1.061616-7.737731,4.584917-8.586135,9.012122s.968008,8.941863,4.646135,11.547878c.763519.538179,1.675883.824822,2.61.82h8.11c.926017.0023,1.830297-.280506,2.59-.81c3.545512-2.501942,5.379042-6.787914,4.74-11.08Z" fill="#287acf"/><path d="M425.26,224.49c-.69615-4.626291-4.116555-8.374517-8.66-9.49v-13c1.065175-.254127,1.817551-1.204933,1.82-2.3v0c0-.628563-.249696-1.231382-.694157-1.675843s-1.04728-.694157-1.675843-.694157h-4.35c-.628563,0-1.231382.249696-1.675843.694157s-.694157,1.04728-.694157,1.675843v0c-.001212,1.096341.752743,2.049143,1.82,2.3v13c-4.380971,1.061616-7.737731,4.584917-8.586135,9.012122s.968008,8.941863,4.646135,11.547878c.763519.538179,1.675883.824822,2.61.82h8.11c.926017.0023,1.830297-.280506,2.59-.81c3.545512-2.501942,5.379042-6.787914,4.74-11.08Z" opacity="0.7" fill="#fff"/><path d="M410.24,197.89c2.355148.812987,4.914852.812987,7.27,0-.414252-.332747-.928672-.515965-1.46-.52h-4.35c-.531606.002457-1.04653.185854-1.46.52Z" fill="#287acf"/><path d="M424.06,224.66c-.206906-1.297914-.669156-2.54191-1.36-3.66-.12.65-4,1.18-8.83,1.18s-8.76-.54-8.83-1.2c-2.770363,4.601956-1.51813,10.562062,2.87,13.66.560624.390014,1.227058.599365,1.91.6h8.11c.675931.00403,1.336402-.202149,1.89-.59c3.193402-2.256529,4.835443-6.125393,4.24-9.99Z" fill="#287acf"/><path d="M422.71,220.92c0,.66-4,1.21-8.84,1.21s-8.84-.55-8.84-1.21s4-1.22,8.84-1.22s8.84.55,8.84,1.22Z" fill="#287acf"/><path d="M422.71,220.92c0,.66-4,1.21-8.84,1.21s-8.84-.55-8.84-1.21s4-1.22,8.84-1.22s8.84.55,8.84,1.22Z" opacity="0.2"/><path d="M404.69,226.47c0,0,2.05,7.72,5.29,7.24s-2.31-3.06-5.29-7.24Z" opacity="0.5" fill="#fff"/></g></g></g></g><g id="e2BKTtY19Ml67_tr" transform="translate(369.825,110.757) rotate(-1.689016)"><g transform="translate(0,0)"><g transform="matrix(.993768 0.111469-.111469 0.993768-355.173767-151.290848)"><path d="M402.27,114c-.94,3.1-16.23,1.2-34.15-4.25s-31.69-12.38-30.74-15.48s16.23-1.19,34.15,4.25s31.68,12.35,30.74,15.48Z" fill="#287acf"/><path d="M402.27,114c-.94,3.1-16.23,1.2-34.15-4.25s-31.69-12.38-30.74-15.48s16.23-1.19,34.15,4.25s31.68,12.35,30.74,15.48Z" opacity="0.8" fill="#fff"/><path d="M353.75,122.63c-.368971-.007622-.723291-.145807-1-.39-.528083-.441006-.710081-1.173042-.45-1.81l4.44-11.24l3.4.39-4.87,12c-.1301.324388-.36162.598003-.66.78-.256719.16666-.55409.26002-.86.27Zm3.61-12.36L353.2,120.8c-.09467.237895-.027947.509654.166134.676655s.472753.192441.693866.063345c.115957-.062887.204885-.166043.25-.29l4.38-10.83-1.33-.15Z" fill="#263238"/><path d="M373.86,128.73c-.617138.006065-1.180583-.350001-1.44-.91-.144562-.312307-.186568-.662357-.12-1l2.7-12.73l3.05,1.57-2.57,11.81c-.139552.672244-.69727,1.177424-1.38,1.25l-.24.01Zm1.8-13.15L373.28,127c-.039774.123544-.039774.256456,0,.38.109491.233281.355715.370593.611724.341141s.46462-.219091.518276-.471141l2.41-11.06-1.16-.61Z" fill="#263238"/><polygon points="357.17,111.79 355.3,111.22 356.4,107.58 358.88,108.33 357.17,111.79" fill="#287acf"/><polygon points="357.17,111.79 359.6,111.32 361.16,108.07 358.88,108.33 357.17,111.79" fill="#287acf"/><polygon points="357.17,111.79 355.3,111.22 356.4,107.58 358.88,108.33 357.17,111.79" opacity="0.1" fill="#fff"/><polygon points="376.2,117.57 378.07,118.14 379.18,114.5 376.7,113.75 376.2,117.57" fill="#287acf"/><polygon points="376.2,117.57 374.43,115.83 374.95,112.26 376.7,113.75 376.2,117.57" fill="#287acf"/><polygon points="376.2,117.57 378.07,118.14 379.18,114.5 376.7,113.75 376.2,117.57" opacity="0.1" fill="#fff"/><path d="M354.9,98.77c-.09,0-4.55-1-6.59-1.44-.025145-.010963-.054523-.003477-.071355.018182s-.016832.051976,0,.073636.04621.029145.071355.018182l5,1.69l1.59-.36Z" fill="#287acf"/><g opacity="0.3"><path d="M354.9,98.77c-.09,0-4.55-1-6.59-1.44-.025145-.010963-.054523-.003477-.071355.018182s-.016832.051976,0,.073636.04621.029145.071355.018182l5,1.69l1.59-.36Z" fill="#fff"/></g><path d="M354.6,101.4l-2.58-.78.25-.81c.101649-.343323.336472-.631684.65209-.800765s.685776-.204817,1.02791-.099235v0c.707838.220992,1.108174.968287.9,1.68l-.25.81Z" fill="#287acf"/><path d="M354.9,98.22l-.19.64-1.27-.39.19-.64c.114616-.344915.480204-.53872.83-.44.169082.050725.310796.16707.393477.323036s.099437.338554.046523.506964Z" fill="#287acf"/><path d="M354.6,101.4l-2.58-.78.25-.81c.101649-.343323.336472-.631684.65209-.800765s.685776-.204817,1.02791-.099235v0c.707838.220992,1.108174.968287.9,1.68l-.25.81Z" opacity="0.4" fill="#fff"/><path d="M358.33,99.61l1.26.57c.103692.036836.172966.13496.172966.245s-.069274.208164-.172966.245v0c-.657828.153524-1.342172.153524-2,0l-1.61-.39c-.026395.005388-.053605.005388-.08,0l-1.62-1-.62-.64l1.82.22c.982796.102609,1.944002.355558,2.85.75Z" fill="#287acf"/><path d="M358.33,99.61l1.26.57c.103692.036836.172966.13496.172966.245s-.069274.208164-.172966.245v0c-.657828.153524-1.342172.153524-2,0l-1.61-.39c-.026395.005388-.053605.005388-.08,0l-1.62-1-.62-.64l1.82.22c.982796.102609,1.944002.355558,2.85.75Z" opacity="0.6" fill="#fff"/><path d="M362,104.5l-1.2,2.09-8.8-4.26c-.472203-.143594-.738594-.642797-.595-1.115s.642797-.738594,1.115-.595l1.84.56c.308814.091758.542804.344928.61.66v0L362,104.5Z" fill="#287acf"/><path d="M362,104.5l-1.2,2.09-8.8-4.26c-.472203-.143594-.738594-.642797-.595-1.115s.642797-.738594,1.115-.595l1.84.56c.308814.091758.542804.344928.61.66v0L362,104.5Z" opacity="0.4" fill="#fff"/><path d="M385.35,108l6.28,2.48c.021877.009538.036021.031134.036021.055s-.014144.045462-.036021.055l-5.09-1.37-1.19-1.22Z" fill="#287acf"/><g opacity="0.3"><path d="M385.35,108l6.28,2.48c.021877.009538.036021.031134.036021.055s-.014144.045462-.036021.055l-5.09-1.37-1.19-1.22Z" fill="#fff"/></g><path d="M384.14,110.38l2.58.78.24-.81c.105582-.342134.069846-.712292-.099235-1.02791s-.457442-.550441-.800765-.65209v0c-.712309-.214006-1.463533.188435-1.68.9l-.24.81Z" fill="#287acf"/><path d="M385.66,107.57l-.2.63l1.27.39.19-.64c.073742-.336752-.124105-.673532-.454153-.77307s-.681107.071699-.805847.39307Z" fill="#287acf"/><path d="M384.14,110.38l2.58.78.24-.81c.105582-.342134.069846-.712292-.099235-1.02791s-.457442-.550441-.800765-.65209v0c-.712309-.214006-1.463533.188435-1.68.9l-.24.81Z" opacity="0.4" fill="#fff"/><path d="M382,106.82l-1.37-.23c-.107763-.014808-.213354.039033-.264659.13495s-.037476.213633.034659.29505v0c.468177.509515,1.0509.900282,1.7,1.14l1.55.57h.09l1.91.07.87-.19-1.64-.84c-.904702-.464638-1.876405-.785165-2.88-.95Z" fill="#287acf"/><path d="M382,106.82l-1.37-.23c-.107763-.014808-.213354.039033-.264659.13495s-.037476.213633.034659.29505v0c.468177.509515,1.0509.900282,1.7,1.14l1.55.57h.09l1.91.07.87-.19-1.64-.84c-.904702-.464638-1.876405-.785165-2.88-.95Z" opacity="0.6" fill="#fff"/><path d="M376.31,108.86l-.17,2.41l9.66,1.33c.454546.099445.908977-.168023,1.042679-.613696s-.098456-.919118-.532679-1.086304l-1.84-.56c-.306449-.0983-.642137-.017271-.87.21v0l-7.29-1.69Z" fill="#287acf"/><path d="M376.31,108.86l-.17,2.41l9.66,1.33c.454546.099445.908977-.168023,1.042679-.613696s-.098456-.919118-.532679-1.086304l-1.84-.56c-.306449-.0983-.642137-.017271-.87.21v0l-7.29-1.69Z" opacity="0.4" fill="#fff"/><path d="M347.33,95.55c.18,0,8.77,1.64,12.71,2.39.060751,0,.11.049249.11.11s-.049249.11-.11.11L350,97.42l-2.67-1.87Z" fill="#287acf"/><path d="M347.33,95.55c.18,0,8.77,1.64,12.71,2.39.060751,0,.11.049249.11.11s-.049249.11-.11.11L350,97.42l-2.67-1.87Z" opacity="0.6" fill="#fff"/><path d="M350.28,96.34c-.18027.596763-.809766.934805-1.406809.755462s-.936061-.808313-.757646-1.405633.806859-.937316,1.404455-.759829c.596473.182864.935161.81122.76,1.41Z" fill="#287acf"/><rect width="2.26" height="1.13" rx="0" ry="0" transform="matrix(.956763 0.290869-.290869 0.956763 348.100159 95.693481)" fill="#287acf"/><rect width="1.31" height="0.59" rx="0" ry="0" transform="matrix(.956763 0.290869-.290869 0.956763 348.230255 96.922821)" fill="#287acf"/><path d="M340.66,94.48l-2.64.06c-.213388.004213-.400576.143411-.466034.346556s.005248.425442.176034.553444v0c1.060566.78834,2.295372,1.309702,3.6,1.52l3.14.51c.052864.01001.107136.01001.16,0l3.61-.57l1.57-.66-3.37-1c-1.874673-.555898-3.825345-.812388-5.78-.76Z" fill="#287acf"/><g opacity="0.6"><path d="M340.66,94.48l-2.64.06c-.213388.004213-.400576.143411-.466034.346556s.005248.425442.176034.553444v0c1.060566.78834,2.295372,1.309702,3.6,1.52l3.14.51c.052864.01001.107136.01001.16,0l3.61-.57l1.57-.66-3.37-1c-1.874673-.555898-3.825345-.812388-5.78-.76Z" fill="#fff"/></g><path d="M347.83,97.43h.56c1.104569,0,2,.895431,2,2v1.72h-4.6v-1.7c-.005518-.540897.208295-1.060962.592666-1.441565s.906518-.589282,1.447334-.578435Z" transform="matrix(.956763 0.290869-.290869 0.956763 43.919998-96.93)" fill="#287acf"/><path d="M347.83,97.43h.56c1.104569,0,2,.895431,2,2v1.72h-4.6v-1.7c-.005518-.540897.208295-1.060962.592666-1.441565s.906518-.589282,1.447334-.578435Z" transform="matrix(.956763 0.290869-.290869 0.956763 43.919998-96.93)" opacity="0.2" fill="#fff"/><path d="M369.05,117.67l-6.22-1.9.46-.49c.373575-.402837.943815-.558005,1.47-.4l3.18,1c.523963.157419.912186.599994,1,1.14l.11.65Z" fill="#287acf"/><path d="M369.05,117.67l-6.22-1.9.46-.49c.373575-.402837.943815-.558005,1.47-.4l3.18,1c.523963.157419.912186.599994,1,1.14l.11.65Z" opacity="0.1" fill="#fff"/><rect width="1.64" height="3.8" rx="0" ry="0" transform="matrix(.956814 0.290702-.290702 0.956814 366.519867 111.845573)" opacity="0.3"/><rect width="4.68" height="6.86" rx="1.34" ry="1.34" transform="matrix(.290869-.956763 0.956763 0.290869 361.52713 119.539963)" fill="#287acf"/><rect width="4.68" height="6.86" rx="1.34" ry="1.34" transform="matrix(.290869-.956763 0.956763 0.290869 361.52713 119.539963)" opacity="0.2" fill="#fff"/><path d="M367.12,120.07L363,118.81l.11-.38c.350608-1.135503,1.552627-1.774494,2.69-1.43v0c1.139526.346326,1.7837,1.549679,1.44,2.69l-.12.38Z" fill="#287acf"/><path d="M367.19,119.86c-.459143.981221-1.569157,1.476413-2.606037,1.162588s-1.685997-1.341443-1.523963-2.412588c.432926-1.020432,1.565329-1.550544,2.62627-1.229436s1.709324,1.390199,1.50373,2.479436Z" fill="#287acf"/><path d="M367.19,119.86c-.459143.981221-1.569157,1.476413-2.606037,1.162588s-1.685997-1.341443-1.523963-2.412588c.432926-1.020432,1.565329-1.550544,2.62627-1.229436s1.709324,1.390199,1.50373,2.479436Z" opacity="0.3"/><path d="M366.67,119.89c-.077514.725107-.601395,1.323746-1.309819,1.496731s-1.449251-.116832-1.852234-.724609-.381577-1.402989.053519-1.988207s1.190443-.834761,1.888534-.623915c.83879.180366,1.380357.997156,1.22,1.84Z" fill="#287acf"/><path d="M366.67,119.89c-.077514.725107-.601395,1.323746-1.309819,1.496731s-1.449251-.116832-1.852234-.724609-.381577-1.402989.053519-1.988207s1.190443-.834761,1.888534-.623915c.83879.180366,1.380357.997156,1.22,1.84Z" opacity="0.2"/><path d="M366.25,119.77c-.244614.594875-.923547.880741-1.52.64-.433919-.04032-.800033-.339771-.925613-.757074s.01447-.869073.354073-1.14217.810901-.312949,1.19154-.100756c.621817.130371,1.023061.736695.9,1.36Z" fill="#287acf"/><path d="M366.25,119.77c-.244614.594875-.923547.880741-1.52.64-.433919-.04032-.800033-.339771-.925613-.757074s.01447-.869073.354073-1.14217.810901-.312949,1.19154-.100756c.621817.130371,1.023061.736695.9,1.36Z" opacity="0.3"/><path d="M365.8,119.54c-.178222.324238-.559713.478655-.91329.369676s-.581944-.451367-.54671-.819676c.178222-.324238.559713-.478655.91329-.369676s.581944.451367.54671.819676Z" fill="#287acf"/><path d="M365.8,119.54c-.178222.324238-.559713.478655-.91329.369676s-.581944-.451367-.54671-.819676c.178222-.324238.559713-.478655.91329-.369676s.581944.451367.54671.819676Z" opacity="0.4"/><path d="M365.67,119.37c-.055199.133021-.161248.238481-.294575.292938s-.282882.0534-.415425-.002938c-.140738-.028858-.264175-.112608-.342999-.23272s-.106534-.266682-.077001-.40728c.132226-.260902.433312-.388441.712713-.301901s.455684.361937.417287.651901Z" fill="#287acf"/><path d="M365.44,119.2c0,.11-.2.17-.37.12s-.29-.19-.25-.31.2-.17.38-.12.28.19.24.31Z" fill="#287acf"/><path d="M365.44,119.2c0,.11-.2.17-.37.12s-.29-.19-.25-.31.2-.17.38-.12.28.19.24.31Z" opacity="0.2" fill="#fff"/><path d="M367.8,113.79l-1.87-.57c-.620074-.192046-.968591-.848867-.78-1.47v0c.090164-.299701.295696-.551307.571377-.699462s.598928-.180723.898623-.090538l1.87.57c.620074.192046.968591.848867.78,1.47v0c-.090164.299701-.295696.551307-.571377.699462s-.598928.180723-.898623.090538Z" fill="#287acf"/><path d="M391.7,114.18l-3.14-1c-.322941-.117714-.677059-.117714-1,0l-37.51-11.4c-.190311-.274841-.469176-.476047-.79-.57l-3.13-1c-.383237-.118569-.797903-.079766-1.152489.107846s-.619943.508609-.737511.892154v0c-.247472.800715.199865,1.650657,1,1.9l2.3.7v0l12.93,5.36.61,2.51c.32707,1.311204,1.317658,2.354927,2.61,2.75l5.45,1.66c1.295262.389347,2.699832.070472,3.7-.84l1.91-1.74l13.72,2.74v0l2.3.7c.800163.241616,1.646142-.203636,1.9-1v0c.171573-.750512-.245076-1.510789-.97-1.77Z" fill="#287acf"/><path d="M391.7,114.18l-3.14-1c-.322941-.117714-.677059-.117714-1,0l-37.51-11.4c-.190311-.274841-.469176-.476047-.79-.57l-3.13-1c-.383237-.118569-.797903-.079766-1.152489.107846s-.619943.508609-.737511.892154v0c-.247472.800715.199865,1.650657,1,1.9l2.3.7v0l12.93,5.36.61,2.51c.32707,1.311204,1.317658,2.354927,2.61,2.75l5.45,1.66c1.295262.389347,2.699832.070472,3.7-.84l1.91-1.74l13.72,2.74v0l2.3.7c.800163.241616,1.646142-.203636,1.9-1v0c.171573-.750512-.245076-1.510789-.97-1.77Z" opacity="0.2" fill="#fff"/><path d="M376.91,110c-.46,1.53-4.5,1.65-9,.28s-7.8-3.72-7.34-5.25s4.5-1.65,9-.28s7.8,3.73,7.34,5.25Z" fill="#287acf"/><path d="M376.91,110c-.46,1.53-4.5,1.65-9,.28s-7.8-3.72-7.34-5.25s4.5-1.65,9-.28s7.8,3.73,7.34,5.25Z" opacity="0.4" fill="#fff"/><path d="M393.36,109.54c-.16-.08-8.2-3.52-11.88-5.09-.055228-.027614-.122386-.005228-.15.05s-.005228.122386.05.15l8.77,5l3.21-.11Z" fill="#287acf"/><path d="M393.36,109.54c-.16-.08-8.2-3.52-11.88-5.09-.055228-.027614-.122386-.005228-.15.05s-.005228.122386.05.15l8.77,5l3.21-.11Z" opacity="0.6" fill="#fff"/><path d="M390.48,108.56c-.177487.597596.162509,1.22604.759829,1.404455s1.22629-.160604,1.405633-.757646-.158699-1.226539-.755462-1.406809c-.287764-.086928-.598304-.055613-.86292.087017s-.461494.384817-.54708.672983Z" fill="#287acf"/><rect width="2.26" height="1.13" rx="0" ry="0" transform="matrix(-.956763-.290869 0.290869-.956763 392.318207 110.279266)" fill="#287acf"/><rect width="1.31" height="0.59" rx="0" ry="0" transform="matrix(-.956763-.290869 0.290869-.956763 391.694763 110.712387)" fill="#287acf"/><path d="M399.51,112.36l2.16,1.52c.176837.123203.254828.345854.193523.552474s-.248108.350706-.463523.357526v0c-1.320976.06703-2.638533-.186874-3.84-.74l-2.89-1.32c-.047749-.023059-.091609-.053424-.13-.09l-2.68-2.48-.94-1.43l3.36,1.06c1.865114.582638,3.62919,1.449498,5.23,2.57Z" fill="#287acf"/><g opacity="0.6"><path d="M399.51,112.36l2.16,1.52c.176837.123203.254828.345854.193523.552474s-.248108.350706-.463523.357526v0c-1.320976.06703-2.638533-.186874-3.84-.74l-2.89-1.32c-.047749-.023059-.091609-.053424-.13-.09l-2.68-2.48-.94-1.43l3.36,1.06c1.865114.582638,3.62919,1.449498,5.23,2.57Z" fill="#fff"/></g><path d="M387.89,113.35l4.4,1.33.42-1.38c.363436-1.211883-.32018-2.489754-1.53-2.86v0c-.583478-.180423-1.214853-.120298-1.753789.16701s-.94078.777992-1.116211,1.36299l-.42,1.38Z" fill="#287acf"/><path d="M387.89,113.35l4.4,1.33.42-1.38c.363436-1.211883-.32018-2.489754-1.53-2.86v0c-.583478-.180423-1.214853-.120298-1.753789.16701s-.94078.777992-1.116211,1.36299l-.42,1.38Z" opacity="0.2" fill="#fff"/></g></g></g><g id="e2BKTtY19Ml141_to" transform="translate(126.07,104.177061)"><g transform="translate(-0.073379,-0.15452)"><g transform="translate(-126.054008-104.110001)"><path d="M132,127.78l3.83-32.59c.025437-.233155-.076704-.461932-.267276-.598646s-.440014-.160161-.652724-.061354L105,108.17c-.211631.092964-.356689.292821-.379484.522844s.080215.454463.269484.587156l26,18.95c.18462.184979.462073.241396.704273.143207s.402039-.331887.405727-.593207Z" fill="#287acf"/><path d="M132,127.78l3.83-32.59c.025437-.233155-.076704-.461932-.267276-.598646s-.440014-.160161-.652724-.061354L105,108.17c-.211631.092964-.356689.292821-.379484.522844s.080215.454463.269484.587156l26,18.95c.18462.184979.462073.241396.704273.143207s.402039-.331887.405727-.593207Z" opacity="0.3"/><path d="M121.6,126.72l2.53-2.13l2.27,1.65-1.25,3.06c-1.478354-.355839-2.75511-1.283735-3.55-2.58Z" fill="#263238"/><path d="M126.4,126.24c0,0-.19.46-.29.72-1.018224-.369286-1.912198-1.017244-2.58-1.87l.6-.5l2.27,1.65Z" opacity="0.2" fill="#fff"/><path d="M125.79,127.73l-.23.57c-1.249863-.426048-2.341194-1.22101-3.13-2.28l.47-.4c.817157.88435,1.798774,1.601033,2.89,2.11Z" opacity="0.4" fill="#fff"/><path d="M123,123.48c1.073099,1.760812,2.804455,3.020635,4.81,3.5l14-19.26c1.59073-2.172562,2.246098-4.891262,1.82-7.55-2.654402.397475-5.040676,1.837158-6.63,4l-14,19.31Z" fill="#287acf"/><path d="M141.83,107.72l-13.22,18.16c-1.953692-.58776-3.649715-1.821872-4.81-3.5c1.42-2,13.22-18.16,13.22-18.16c1.589324-2.162842,3.975598-3.602525,6.63-4c.412304,2.642449-.242407,5.340433-1.82,7.5Z" fill="#287acf"/><path d="M141.83,107.72l-13.22,18.16c-1.953692-.58776-3.649715-1.821872-4.81-3.5c1.42-2,13.22-18.16,13.22-18.16c1.589324-2.162842,3.975598-3.602525,6.63-4c.412304,2.642449-.242407,5.340433-1.82,7.5Z" opacity="0.4" fill="#fff"/><path d="M141.83,107.72l-9.93,13.64c-1.897081-.697664-3.562556-1.909548-4.81-3.5L137,104.22c1.589324-2.162842,3.975598-3.602525,6.63-4c.418021,2.639768-.229433,5.337492-1.8,7.5Z" fill="#287acf"/><path d="M141.83,107.72l-9.93,13.64c-1.897081-.697664-3.562556-1.909548-4.81-3.5L137,104.22c1.589324-2.162842,3.975598-3.602525,6.63-4c.418021,2.639768-.229433,5.337492-1.8,7.5Z" opacity="0.6" fill="#fff"/><path d="M141.83,107.72l-5.2,7.14c-1.898847-.694356-3.565161-1.90685-4.81-3.5l5.2-7.14c1.589324-2.162842,3.975598-3.602525,6.63-4c.412304,2.642449-.242407,5.340433-1.82,7.5Z" fill="#287acf"/><path d="M141.83,107.72l-5.2,7.14c-1.898847-.694356-3.565161-1.90685-4.81-3.5l5.2-7.14c1.589324-2.162842,3.975598-3.602525,6.63-4c.412304,2.642449-.242407,5.340433-1.82,7.5Z" opacity="0.8" fill="#fff"/><path d="M141.83,107.72l-.61.84c-1.899545-.698065-3.565747-1.913942-4.81-3.51l.61-.83c1.589324-2.162842,3.975598-3.602525,6.63-4c.412304,2.642449-.242407,5.340433-1.82,7.5Z" fill="#287acf"/><path d="M141.83,107.72l-.61.84c-1.899545-.698065-3.565747-1.913942-4.81-3.51l.61-.83c1.589324-2.162842,3.975598-3.602525,6.63-4c.412304,2.642449-.242407,5.340433-1.82,7.5Z" opacity="0.4" fill="#fff"/><path d="M106.13,115.45l2.52-2.13l2.28,1.66-1.26,3c-1.467665-.343066-2.740161-1.252505-3.54-2.53Z" fill="#263238"/><path d="M110.93,115l-.29.71c-1.021071-.363899-1.916432-1.012862-2.58-1.87l.59-.5l2.28,1.66Z" opacity="0.2" fill="#fff"/><path d="M110.32,116.46l-.23.57c-1.251635-.422631-2.343902-1.218277-3.13-2.28l.47-.4c.817157.88435,1.798774,1.601033,2.89,2.11Z" opacity="0.4" fill="#fff"/><path d="M107.52,112.21c1.075268,1.760791,2.805123,3.023118,4.81,3.51l14-19.26c1.590275-2.176591,2.245462-4.898139,1.82-7.56-2.652876.401706-5.037645,1.840481-6.63,4l-14,19.31Z" fill="#287acf"/><path d="M126.36,96.46c0,0-11.8,16.19-13.22,18.15-1.953692-.58776-3.649715-1.821872-4.81-3.5L121.55,93c1.592355-2.159519,3.977124-3.598294,6.63-4c.398035,2.629251-.255849,5.309459-1.82,7.46Z" fill="#287acf"/><path d="M126.36,96.46c0,0-11.8,16.19-13.22,18.15-1.953692-.58776-3.649715-1.821872-4.81-3.5L121.55,93c1.592355-2.159519,3.977124-3.598294,6.63-4c.398035,2.629251-.255849,5.309459-1.82,7.46Z" opacity="0.4" fill="#fff"/><path d="M126.36,96.46l-9.93,13.63c-1.900378-.691482-3.567424-1.90451-4.81-3.5L121.55,93c1.592355-2.159519,3.977124-3.598294,6.63-4c.398035,2.629251-.255849,5.309459-1.82,7.46Z" fill="#287acf"/><path d="M126.36,96.46l-9.93,13.63c-1.900378-.691482-3.567424-1.90451-4.81-3.5L121.55,93c1.592355-2.159519,3.977124-3.598294,6.63-4c.398035,2.629251-.255849,5.309459-1.82,7.46Z" opacity="0.6" fill="#fff"/><path d="M126.36,96.46l-5.2,7.14c-1.900821-.695679-3.56763-1.911999-4.81-3.51l5.2-7.14c1.592355-2.159519,3.977124-3.598294,6.63-4c.411696,2.64557-.242837,5.346417-1.82,7.51Z" fill="#287acf"/><path d="M126.36,96.46l-5.2,7.14c-1.900821-.695679-3.56763-1.911999-4.81-3.51l5.2-7.14c1.592355-2.159519,3.977124-3.598294,6.63-4c.411696,2.64557-.242837,5.346417-1.82,7.51Z" opacity="0.8" fill="#fff"/><path d="M126.36,96.46l-.61.83c-1.897081-.697664-3.562556-1.909548-4.81-3.5l.61-.84c1.592355-2.159519,3.977124-3.598294,6.63-4c.411696,2.64557-.242837,5.346417-1.82,7.51Z" fill="#287acf"/><path d="M126.36,96.46l-.61.83c-1.897081-.697664-3.562556-1.909548-4.81-3.5l.61-.84c1.592355-2.159519,3.977124-3.598294,6.63-4c.411696,2.64557-.242837,5.346417-1.82,7.51Z" opacity="0.4" fill="#fff"/><path d="M111.7,121.78l4.07-3.44l3.67,2.68-2,4.93c-2.393429-.567698-4.460307-2.069246-5.74-4.17Z" fill="#263238"/><path d="M119.44,121l-.47,1.15c-1.643529-.584455-3.086522-1.625075-4.16-3l1-.81l3.63,2.66Z" opacity="0.2" fill="#fff"/><path d="M118.46,123.41l-.38.92c-1.997321-.693613-3.739582-1.972432-5-3.67l.76-.65c1.305589,1.421491,2.874581,2.576161,4.62,3.4Z" opacity="0.4" fill="#fff"/><path d="M113.94,116.55c1.72717,2.847119,4.521357,4.885147,7.76,5.66l22.65-31.09c2.560713-3.515126,3.618431-7.904294,2.94-12.2-4.297398.66972-8.151247,3.02305-10.71,6.54l-22.64,31.09Z" fill="#287acf"/><path d="M144.35,91.12L123,120.43c-3.151829-.961156-5.888635-2.954762-7.77-5.66c2.31-3.16,21.35-29.31,21.35-29.31c2.558753-3.51695,6.412602-5.87028,10.71-6.54.678431,4.295706-.379287,8.684874-2.94,12.2Z" fill="#287acf"/><path d="M144.35,91.12L123,120.43c-3.151829-.961156-5.888635-2.954762-7.77-5.66c2.31-3.16,21.35-29.31,21.35-29.31c2.558753-3.51695,6.412602-5.87028,10.71-6.54.678431,4.295706-.379287,8.684874-2.94,12.2Z" opacity="0.4" fill="#fff"/><path d="M144.35,91.12l-16,22c-3.07037-1.119112-5.763268-3.080734-7.77-5.66l16-22c2.558753-3.51695,6.412602-5.87028,10.71-6.54.678431,4.295706-.379287,8.684874-2.94,12.2Z" fill="#287acf"/><path d="M144.35,91.12l-16,22c-3.07037-1.119112-5.763268-3.080734-7.77-5.66l16-22c2.558753-3.51695,6.412602-5.87028,10.71-6.54.678431,4.295706-.379287,8.684874-2.94,12.2Z" opacity="0.6" fill="#fff"/><path d="M144.35,91.12L136,102.64c-3.082512-1.107013-5.789736-3.062037-7.81-5.64l8.39-11.53c2.558753-3.51695,6.412602-5.87028,10.71-6.54.675681,4.292448-.381906,8.677478-2.94,12.19Z" fill="#287acf"/><path d="M144.35,91.12L136,102.64c-3.082512-1.107013-5.789736-3.062037-7.81-5.64l8.39-11.53c2.558753-3.51695,6.412602-5.87028,10.71-6.54.675681,4.292448-.381906,8.677478-2.94,12.19Z" opacity="0.8" fill="#fff"/><path d="M144.35,91.12l-1,1.34c-3.065098-1.12398-5.755926-3.080631-7.77-5.65l1-1.35c2.558753-3.51695,6.412602-5.87028,10.71-6.54.678431,4.295706-.379287,8.684874-2.94,12.2Z" fill="#287acf"/><path d="M144.35,91.12l-1,1.34c-3.065098-1.12398-5.755926-3.080631-7.77-5.65l1-1.35c2.558753-3.51695,6.412602-5.87028,10.71-6.54.678431,4.295706-.379287,8.684874-2.94,12.2Z" opacity="0.1" fill="#fff"/><path d="M133.67,92.86c-.668552.9145-.7202,2.141737-.13085,3.109176s1.703566,1.484448,2.822843,1.309829s2.02306-1.006456,2.289715-2.10744-.156364-2.254169-1.071708-2.921565c-1.248412-.910244-2.998181-.637262-3.91.61Z" fill="#287acf"/><path d="M134.29,96.77c1.180704.860035,2.824897.663778,3.77-.45-.032993.062169-.069727.12228-.11.18-.91127,1.250925-2.664075,1.52627-3.915.615s-1.52627-2.664075-.615-3.915l.14-.16c-.772134,1.242447-.453546,2.8703.73,3.73Z" fill="#287acf"/><path d="M134.29,96.77c1.180704.860035,2.824897.663778,3.77-.45-.032993.062169-.069727.12228-.11.18-.91127,1.250925-2.664075,1.52627-3.915.615s-1.52627-2.664075-.615-3.915l.14-.16c-.772134,1.242447-.453546,2.8703.73,3.73Z" opacity="0.3"/><path d="M134.34,93.34c-.487849.650889-.532892,1.532401-.11393,2.229626s1.218461,1.071252,2.022185.946034s1.451547-.724733,1.63855-1.516366-.124071-1.617663-.786805-2.089294c-.884276-.62929-2.109071-.438471-2.76.43Z" fill="#fff"/><path d="M134.86,96.16l1.59-3.56c.21703.060025.422994.154566.61.28l-1.59,3.55c-.218086-.052082-.424816-.143585-.61-.27Z" fill="#287acf"/><path d="M134.32,95.64l1.39-3.09c.123126-.010113.246874-.010113.37,0l-1.51,3.38c-.096985-.084003-.181204-.181697-.25-.29Z" fill="#287acf"/><g opacity="0.7"><path d="M134.86,96.16l1.59-3.56c.21703.060025.422994.154566.61.28l-1.59,3.55c-.218086-.052082-.424816-.143585-.61-.27Z" fill="#fff"/><path d="M134.32,95.64l1.39-3.09c.123126-.010113.246874-.010113.37,0l-1.51,3.38c-.096985-.084003-.181204-.181697-.25-.29Z" fill="#fff"/></g></g></g></g><g id="e2BKTtY19Ml190_to" transform="translate(97.340083,195.230348)"><g transform="translate(0,0)"><g transform="translate(-97.499886-195.190582)"><circle r="15.47" transform="matrix(.947154-.320778 0.320778 0.947154 100.680595 182.841736)" opacity="0.1"/><polygon points="95.53,195.74 80.81,224.23 78.37,222.97 93.09,194.48 95.53,195.74" fill="#287acf"/><polyline points="93.09,194.48 95.53,195.74 80.81,224.23 78.37,222.97" opacity="0.5"/><path d="M90.71,209.21l-7.24,14c-.262504.511895-.718365.897926-1.266513,1.072508s-1.143293.123288-1.653487-.142508l-1.92-1c-1.063035-.554703-1.478542-1.863773-.93-2.93l7.24-14c.627413-1.172326,2.083141-1.618868,3.26-1l1.47.77c1.169881.612573,1.632679,2.049915,1.04,3.23Z" fill="#287acf"/><path d="M90.71,209.21l-7.24,14c-.262504.511895-.718365.897926-1.266513,1.072508s-1.143293.123288-1.653487-.142508l-1.92-1c-1.063035-.554703-1.478542-1.863773-.93-2.93l7.24-14c.627413-1.172326,2.083141-1.618868,3.26-1l1.47.77c1.169881.612573,1.632679,2.049915,1.04,3.23Z" opacity="0.5" fill="#fff"/><path d="M106.24,198.76l-.45.15c-8.824887,2.804244-18.259045-2.037995-21.125329-10.842927s1.90944-18.272936,10.693981-21.201117s18.285922,1.78079,21.275855,10.544505-1.652051,18.298002-10.394507,21.349539ZM96.06,169.6c-3.389732,1.164668-6.198549,3.593721-7.84,6.78-3.070805,5.929445-1.526632,13.202289,3.688526,17.372456s12.649538,4.076791,17.758313-.223042s6.469797-11.609168,3.251039-17.459616-10.121282-8.613403-16.487878-6.599798l-.37.13Z" fill="#287acf"/><path d="M94,171.29c-4.55,2.8-8,10.36-5.84,16.42.68,1.25,1.12,2,1.73,3c.073027.135003.229493.201833.377519.161245s.248524-.177875.242481-.331245c-.063235-7.284073,2.475784-14.351484,7.16-19.93.101387-.1129.112715-.280388.027454-.405912s-.245134-.176725-.387454-.124088c-1.08.35-1.93.67-3.31,1.21Z" opacity="0.5" fill="#fff"/><g opacity="0.5"><path d="M111.35,174.87c-.639987,7.539728-3.280882,14.771983-7.65,20.95-.036742.058333-.093712.101061-.16.12l-1.52.55c-.126662.047949-.269792.010968-.357375-.092335s-.100649-.250554-.032625-.367665c3.917625-6.886187,6.642701-14.385218,8.06-22.18.038604-.221803.208488-.397683.42882-.443953s.446615.046415.57118.233953l.57.89c.06858.09944.100401.219653.09.34Z" fill="#fff"/></g></g></g></g><g transform="translate(347.33 301.489)"><g transform="translate(-347.011688-301.418793)"><polygon points="336.85,397.17 335.51,409.65 328.7,408.94 329.37,395.33 336.85,397.17" fill="#dd8c6a"/><path d="M325.48,409.07c-.727061.023308-1.437824-.218352-2-.68-.131571-.225674-.107576-.509606.06-.71.132845-.179784.329795-.301534.55-.34c1.17-.24,3.48,1.32,3.58,1.39.062484.031261.092355.103805.07.17-.017922.066567-.07229.117051-.14.13-.704296.072734-1.413461.086114-2.12.04Zm-1-1.43c-.102796-.014907-.207204-.014907-.31,0-.140953.009886-.268054.088389-.34.21-.14.19-.1.29-.06.35.29.47,2,.61,3.32.55-.792527-.530708-1.677983-.907281-2.61-1.11Z" fill="#287acf"/><path d="M327.58,409c-.022377.009446-.047623.009446-.07,0-.79-.43-2.34-2.05-2.14-2.81c0-.19.19-.4.64-.42.331532-.00703.652067.119023.89.35.577084.800381.885213,1.763284.88,2.75.001015.060557-.034487.115782-.09.14-.035804.016652-.077786.012835-.11-.01Zm-1.48-2.92h-.1c-.3,0-.33.12-.34.16-.08.46.92,1.71,1.74,2.28-.021775-.78778-.287302-1.549423-.76-2.18-.145418-.149467-.341771-.238719-.55-.25l.01-.01Z" fill="#287acf"/><path d="M328.38,408.11l7.54.55c.283999.024014.515044.238555.56.52l.91,6.23c.045883.267212-.0187.541601-.17895.760295s-.402431.362947-.67105.399705h-.21c-2.71-.25-5.12-.58-8.5-.82-4-.29-3,.26-7.71,0-2.83-.17-3.12-3.42-1.9-3.49c5.53-.29,6.22-1.9,8.49-3.71.483198-.347931,1.078092-.50467,1.67-.44Z" fill="#263238"/><polygon points="329,402.88 334.08,402.68 336.17,403.55 334.39,406.07 328.84,405.77 329,402.88" opacity="0.2"/><path d="M353.92,271.42l-12.07,73-4,61.23-10.22-1.26c0,0-1.8-30.63-.09-62.79c1.55-29.05,6.58-59.36,7.31-69.05l3.78-6.69l7.53.93l7.76,4.63Z" fill="#287acf"/><path d="M400.16,399.85L395,402.52c0,0-1.19-2.08-3.09-5.47-.43-.75-.89-1.57-1.38-2.44l6.22-2.72h.08l.18.41c.31.74.6,1.43.88,2.07c1.39,3.36,2.27,5.48,2.27,5.48Z" fill="#dd8c6a"/><path d="M391.22,402.34c-.626826.368021-1.365949.495947-2.08.36-.223965-.138264-.336222-.402869-.28-.66.025377-.220264.136809-.421562.31-.56.93-.77,3.7-.51,3.82-.49.071121.002196.132245.051096.15.12.009102.068037-.017323.135988-.07.18-.588155.398009-1.206733.749094-1.85,1.05Zm-1.56-.78c-.098518.041851-.189678.099248-.27.17-.11658.075427-.190716.201458-.2.34c0,.24.05.31.11.34.48.28,2.08-.43,3.19-1.11-.951295-.088976-1.910842-.000819-2.83.26Z" fill="#287acf"/><path d="M393.05,401.29c-.022711.007622-.047289.007622-.07,0-.91,0-3.05-.68-3.23-1.45-.06-.18,0-.45.36-.68.288537-.163457.62988-.206574.95-.12c1.11.3,2.05,1.93,2.09,2c.033478.04808.033478.11192,0,.16-.011801.047622-.051403.083263-.1.09Zm-2.71-1.86h-.09c-.26.15-.22.26-.22.31.16.44,1.64,1.07,2.63,1.18-.39649-.683092-.993478-1.227712-1.71-1.56-.196503-.074535-.413497-.074535-.61,0v.07Z" fill="#287acf"/><path d="M393.76,400l5.46-2.53c.260696-.118107.568449-.039089.74.19l3.78,5.05c.166572.2122.240343.482698.204566.750083s-.178067.508973-.394566.669917c-.057338.046164-.121416.083262-.19.11-2.5,1.08-3.34,1.36-6.43,2.76-3.66,1.65-2.53,1.67-6.8,3.67-2.58,1.21-4.38-1.52-3.35-2.16c4.74-2.92,6.42-8.3,6.98-8.51Z" fill="#263238"/><path d="M397.84,394.33l-6,2.72c-.43-.75-.89-1.57-1.38-2.44l6.22-2.72.26.37c.33.74.62,1.43.9,2.07Z" opacity="0.2"/><path d="M342.7,271c0,0,12.6,61.16,18.63,75.8c5.36,13,29.13,49.58,29.13,49.58l7.42-3.7c0,0-8.25-23.36-16.18-38.37-2.77-5.23-5.65-9.25-6.88-12.07-1.63-3.73-1.13-65.44-10.38-71.53L342.7,271Z" fill="#287acf"/><path d="M348.51,302.48l-4.16,26.16c-1.08-15,1-38.08,1-38.08l3.16,11.92Z" opacity="0.2"/><path d="M333.78,262.34c.302113-2.611996.372387-5.24561.21-7.87-2.13-24.95-2.16-27.39-1.95-31.78.036138-.789205.552011-1.475712,1.3-1.73c17.25-5.91,32.32-3.13,36.22-.94c5.2,2.92,3.13,6,3.07,6.95-.49,7.4-5.26,22.05-5.33,34c0,1.76.18,6,.3,8.34.055036.953379-.595434,1.803667-1.53,2-3.88.81-22.49,1-25.68.94-2.112894-.043615-4.222242-.193806-6.32-.45-.531805-.074082-1.00871-.366357-1.316116-.806592s-.41752-.98863-.303884-1.513408c.47-2.14,1.19-5.58,1.33-7.14Z" fill="#263238"/><path d="M355,207.18c-.65,3.87-1.26,9.53,1.51,12c0,0,0,3.94-10.84,8.47-4.08-5.53-1.19-8.15-1.19-8.15c4.29-1.14,4.12-2.89,3.3-5.86l7.22-6.46Z" fill="#dd8c6a"/><path style="isolation:isolate" d="M352.08,209.79l-4.24,3.87c.200315.693369.340829,1.402631.42,2.12c1.65-.28,4.2-1.74,4.5-3.54-.01876-.860602-.252523-1.702838-.68-2.45Z" opacity="0.2"/><path d="M359.87,200.44c-1.56,6.36-2.09,9.08-5.94,11.78-5.8,4.08-13.27.76-13.64-5.94-.32-6,2.3-15.46,9.07-16.83c3.032045-.644648,6.181638.327362,8.323053,2.568615s2.968995,5.43184,2.186947,8.431385v-.01Z" fill="#dd8c6a"/><path d="M348.84,199.63c-.1.52-.45.9-.79.84s-.54-.54-.45-1.06.45-.9.79-.84.52.56.45,1.06Z" fill="#263238"/><path d="M343,198.62c-.1.53-.45.9-.79.84s-.55-.55-.46-1.07.46-.9.8-.83.51.54.45,1.06Z" fill="#263238"/><path d="M346.85,206.73c-.265256-.009636-.529373-.039726-.79-.09-.080431-.015084-.136517-.088427-.13-.17v0c.02752-.079477.106409-.129302.19-.12c1.315864.269873,2.68169-.101275,3.68-1c.062475-.053028.154916-.050282.214133.006361s.066067.14887.015867.213639c-.861121.79817-2.007208,1.216239-3.18,1.16Z" fill="#263238"/><path d="M351.62,198.83c-.132707.021427-.263468-.048039-.32-.17-.56761-.859176-1.465157-1.445477-2.48-1.62-.171208-.022091-.292091-.178792-.27-.35s.178792-.292091.35-.27v0c1.226836.207327,2.303225.937082,2.95,2c.072426.152008.010271.334035-.14.41v0c-.028864.011676-.061136.011676-.09,0Z" fill="#263238"/><path d="M341.93,196.59c-.110761.024012-.225798-.014334-.3-.1-.058625-.0582-.091597-.137392-.091597-.22s.032972-.1618.091597-.22c.723957-.719727,1.759147-1.031034,2.76-.83.15889.034997.260925.190267.23.35v0c-.018823.078882-.068779.146784-.138485.18823s-.153221.052907-.231515.03177v0c-.786915-.126193-1.587291.125777-2.16.68-.0352.059733-.0928.102933-.16.12Z" fill="#263238"/><path d="M357.94,217.36l-1.13-.19-6.33,3.46-2,.08-3.76-3.19-1.25.3v0c-1.169937,3.620176-1.390313,7.480193-.64,11.21L345,239.7l2.24,11.67v0l.47-1.07l1.76-4l2.41-4.59l4.39-11.23l1.24-4.62c.746946-2.761423.873302-5.653962.37-8.47l.06-.03Z" fill="#263238"/><path d="M351.11,220.71c-6.78.08-7.54-2.42-7.54-2.42v-.59c0,0-2,3.85,3.85,4.52s9.8-2.12,10.63-3.8v0c-.65.89-2.4,2.24-6.94,2.29Z" opacity="0.1"/><path d="M359.82,207c1.73-1.36,1.53-3.65,2.55-5.59c1.77-3.37,0-4.77,0-4.77c1.5-2.09.25-5-2.59-4.69-.904976-1.693723-2.131131-3.194999-3.61-4.42-2.796995-1.862455-6.489523-1.646207-9.05.53-.537623-.520787-1.332962-.673038-2.024914-.387626s-1.148673.954105-1.162801,1.702476.417028,1.433824,1.097715,1.74515c.961516,1.301674,2.303184,2.272986,3.84,2.78c2,.72,5.51.89,7.63,1.3-.132048,1.73609-.369149,3.462585-.71,5.17-.422341,3.433729-.422341,6.906271,0,10.34c1.45-1.17,3.78-1.93,4.03-3.71Z" fill="#263238"/><path d="M359.61,205c-.573037,1.012789-1.527158,1.754484-2.65,2.06-1.49.4-2.22-.94-1.79-2.36.39-1.26,1.64-3,3.14-2.79.665695.120315,1.225454.568989,1.487787,1.192533s.19168,1.33744-.187787,1.897467Z" fill="#dd8c6a"/><path d="M356.75,200.49l-4.34-.73c-.37-1.11-1.93-1.37-2.59-1.49s-2.35-.39-3,.68l-1.51-.26c-.28-1.22-1.94-1.51-2.63-1.62s-3-.5-3.27,1.34c-.196743,1.592612.894639,3.058043,2.476867,3.325763s3.09497-.75708,3.433133-2.325763c0-.11,0-.2,0-.3l1.29.22c-.029179.095162-.052555.192006-.07.29-.196743,1.592612.894639,3.058043,2.476867,3.325763s3.09497-.75708,3.433133-2.325763c.014741-.139612.014741-.280388,0-.42l4.2.71c.575581.094037,1.099607.387917,1.48.83l.3-.27c-.431029-.509679-1.024177-.855683-1.68-.98Zm-14.78.66c-.642136-.065567-1.2318-.38392-1.638902-.884825s-.598187-1.143197-.531098-1.785175c.17-1,1-1.31,2.79-1s2.48.86,2.31,1.87c-.320964,1.285421-1.60565,2.082812-2.9,1.8h-.03Zm7.16,1.21c-1.331707-.146953-2.298391-1.336375-2.17-2.67.17-1,1-1.31,2.79-1s2.47.86,2.3,1.87c-.316208,1.29837-1.617981,2.100833-2.92,1.8Z" fill="#fff"/><path d="M343.59,216.11v2.5c0,0,.76,2.5,7.54,2.43s7.35-3.07,7.35-3.07v-1.81c.005662-.625028-.270056-1.219468-.750871-1.618854s-1.115747-.561374-1.729129-.441146c-3.349445.52639-6.760555.52639-10.11,0-.576667-.061568-1.152853.120416-1.589541.502043s-.694219.92824-.710459,1.507957Z" fill="#263238"/><path d="M345.39,199.41c-.886624,1.428865-1.96312,2.730753-3.2,3.87.612455.617106,1.46251.938157,2.33.88l.87-4.75Z" fill="#f84a35"/><path d="M301,209.79c-.168696-2.273112-1.515733-4.291771-3.55-5.32s-.51-3.72-2.54-4.53-4.84,3.64-4.84,3.64.62,5.18,4.58,6.49l4.3,2.4l2.05-2.68Z" fill="#dd8c6a"/><path d="M303.17,211.68L302,208.81c-2.460794.520028-4.635263,1.948251-6.09,4l2.76,2.28l4.5-3.41Z" fill="#287acf"/><path d="M303.14,211.09c4.027287,5.358207,9.011163,9.925065,14.7,13.47c6.477845-2.560669,13.420276-3.735909,20.38-3.45l-3.85,8.77c0,0-13,4.54-19.37,2.91-5-1.29-13.69-13.1-17.08-17.95c1.429069-1.63413,3.215208-2.917276,5.22-3.75Z" fill="#263238"/><path d="M383.78,261.56c-1.292353,1.877658-1.504925,4.295658-.56,6.37s-1.94,3.22-.86,5.12s6.05.2,6.05.2s2.76-4.44.5-7.93l-1.85-4.57-3.28.81Z" fill="#dd8c6a"/><path d="M383.28,258.73l-.88,3c2.247784,1.134826,4.842491,1.374282,7.26.67l-.72-3.5-5.66-.17Z" fill="#287acf"/><path d="M382.93,259.21c.221815-6.698656-.795237-13.380686-3-19.71s-13.3-7.91-17.4-12.16c-1.103781-1.149655-1.602732-2.751414-1.347101-4.324529s1.236089-2.934469,2.647101-3.675471v0c1.70045-.882813,3.752588-.735955,5.31.38c4.85,3.51,15.19,11.21,18.16,15.17c3.1,4.15,2.46,18.78,2.06,24.69-2.143423.370066-4.343174.243486-6.43-.37Z" fill="#263238"/><path d="M382.93,259.21c.221815-6.698656-.795237-13.380686-3-19.71s-13.3-7.91-17.4-12.16c-1.103781-1.149655-1.602732-2.751414-1.347101-4.324529s1.236089-2.934469,2.647101-3.675471v0c1.70045-.882813,3.752588-.735955,5.31.38c4.85,3.51,15.19,11.21,18.16,15.17c3.1,4.15,2.46,18.78,2.06,24.69-2.143423.370066-4.343174.243486-6.43-.37Z" fill="#263238"/></g></g><g transform="translate(154.077 307.9)"><g transform="translate(-154.077332-307.899811)"><polygon points="162.55,297.33 169.18,329.02 157.64,329.61 162.55,297.33" fill="#287acf"/><polygon points="162.55,297.33 169.18,329.02 157.64,329.61 162.55,297.33" opacity="0.6" fill="#fff"/><polygon points="179.61,395.42 179.22,408.97 172.93,408.91 172.25,394.73 179.61,395.42" fill="#ffb573"/><polygon points="172.68,403.65 172.51,400.3 179.48,400.09 179.37,403.71 172.68,403.65" opacity="0.1"/><path d="M180.4,408.69c-.066838-.023451-.116287-.080507-.13-.15-.011441-.070562.019957-.141208.08-.18.1-.07,2.47-1.55,3.61-1.2.222875.064156.410391.21561.52.42.153846.233613.153846.536387,0,.77-.27.4-1.15.57-2,.56-.69857-.01011-1.394772-.083746-2.08-.22Zm.53-.24c1.27.18,3,.18,3.31-.31c0-.06.08-.17,0-.39-.066501-.124847-.182772-.215684-.32-.25-.102815-.014634-.207185-.014634-.31,0-.949669.126885-1.862436.45044-2.68.95Z" fill="#287acf"/><path d="M180.32,408.68c-.049185-.038741-.078518-.097408-.08-.16c0-.1.17-2.12,1-2.9.241767-.226002.571769-.332336.9-.29.45.05.59.29.61.5.15.84-1.47,2.46-2.28,2.85h-.07c-.026099.007781-.053901.007781-.08,0Zm1.75-3c-.207799-.000272-.407952.07836-.56.22-.509481.661686-.815261,1.457409-.88,2.29.84-.54,1.9-1.81,1.85-2.32c0,0,0-.17-.32-.2l-.09.01Z" fill="#287acf"/><path d="M179.7,407.64h-7.46c-.292348.009541-.53826.222109-.59.51l-1.33,6.69c-.136836.574354.195701,1.156294.76,1.33h.21c2.71,0,5.12-.19,8.49-.17c4,0,3,.54,7.65.64c2.81.05,3.26-3.47,2.07-3.65-5.46-.78-6.05-2.6-8.18-4.74-.438231-.409329-1.020626-.628625-1.62-.61Z" fill="#263238"/><polygon points="147.04,393.11 143.44,406.08 137.38,404.42 140.08,390.58 147.04,393.11" fill="#ffb573"/><polygon points="144.76,401.3 138.29,399.73 139.32,394.45 146.25,395.96 144.76,401.3" opacity="0.1"/><path d="M144.41,406.67c-.068535-.022448-.113583-.087971-.11-.16-.001703-.073873.041915-.141283.11-.17.12,0,2.71-1,3.77-.48.20471.10698.359152.290156.43.51.107587.255564.061095.550018-.12.76-.64016.330405-1.38667.388106-2.07.16-.689646-.136567-1.363256-.344347-2.01-.62Zm.55-.13c1.22.42,2.91.75,3.31.33c0-.05.11-.14,0-.39-.037593-.137017-.137687-.248232-.27-.3-.090357-.051526-.188201-.088639-.29-.11-.9252-.019687-1.845462.139916-2.71.47h-.04Z" fill="#287acf"/><path d="M144.32,406.65c-.023962-.054134-.023962-.115866,0-.17c0-.09.56-2,1.55-2.64.276073-.178114.617757-.222203.93-.12.43.13.52.4.5.61c0,.85-1.89,2.12-2.76,2.35h-.07c-.051958.007407-.104887-.003179-.15-.03ZM146.6,404c-.203466-.043491-.415876-.003889-.59.11-.622561.549523-1.070942,1.269019-1.29,2.07.93-.37,2.2-1.41,2.25-1.91c0-.05,0-.18-.28-.26l-.09-.01Z" fill="#287acf"/><path d="M143.91,405.51l-7.3-1.46c-.289389-.055555-.575395.110926-.67.39l-2.53,6.28c-.238692.53721-.02563,1.167699.49,1.45l.2.07c2.66.48,5,.79,8.34,1.46c3.89.79,2.81,1.1,7.39,2.1c2.76.6,3.86-2.77,2.72-3.18-5.23-1.81-5.47-3.7-7.16-6.21-.357199-.481404-.888233-.80433-1.48-.9Z" fill="#263238"/><path d="M174.88,278.49c0,0,7,53.35,7.74,70.36.56,13.32-.2,49.52-.2,49.52l-11.25-.11-.23-4.65c-1.47442-30.457804-5.468062-60.741246-11.94-90.54l-5-23.24l20.88-1.34Z" fill="#287acf"/><path d="M174.88,278.49c0,0,7,53.35,7.74,70.36.56,13.32-.2,49.52-.2,49.52l-11.25-.11-.23-4.65c-1.47442-30.457804-5.468062-60.741246-11.94-90.54l-5-23.24l20.88-1.34Z" fill="#263238"/><path d="M159.6,313.13l4.65-21.94.69,2.82c3.280474,13.41428,3.939204,27.335901,1.94,41l-.85,5.77c-.67-3.08-3.72-19.78-6.43-27.65Z" opacity="0.1"/><path d="M167.43,278.66c0,0-3.72,64.94-5.63,74.91-2.23,11.73-14.48,42.62-14.48,42.62l-8.68-2.35c0,0,3.77-23.88,6.1-38.07c2-12.08,2.64-32.8,3.12-46.38c0,0-3-22.54-1-28.36l20.57-2.37Z" fill="#263238"/><path d="M167.43,278.66c0,0-3.72,64.94-5.63,74.91-2.23,11.73-14.48,42.62-14.48,42.62l-8.68-2.35c0,0,3.77-23.88,6.1-38.07c2-12.08,2.64-32.8,3.12-46.38c0,0-3-22.54-1-28.36l20.57-2.37Z" fill="#263238"/><polygon points="150.79,394.39 148.41,399.43 136.13,395.74 136.72,391.28 150.79,394.39" fill="#287acf"/><polygon points="183.6,395.8 183.23,401.31 169.54,401.05 169.16,395.89 183.6,395.8" fill="#287acf"/><path d="M199.66,214l2.21-3.84l4.5-3.19c.785613-.576813,1.173727-1.55098,1-2.51l-.52-3.13c-.229278-1.343092-1.453118-2.283837-2.81-2.16l-1.12.11c-1.171569.110329-2.112392,1.01385-2.27,2.18v0c-.076027.573829-.34805,1.103745-.77,1.5l-.62.6c-.546465.516816-.835776,1.249249-.79,2l.13,1.62-2.69,4.52l3.75,2.3Z" fill="#ffb573"/><polygon points="200.77,213.93 201.95,211.64 196.76,208.43 195.64,211.03 200.77,213.93" fill="#263238"/><polygon points="200.77,213.93 201.95,211.64 196.76,208.43 195.64,211.03 200.77,213.93" opacity="0.7" fill="#fff"/><path d="M164.35,228.66l8.41.14c8.33282-1.490893,15.564551-6.624982,19.72-14l3.08-5.45l6.37,4.32-6.55,12.27c-2.114934,4.256941-6.053183,7.319206-10.7,8.32l-18.54,4.89-1.79-10.49Z" fill="#263238"/><path d="M164.35,228.66l8.41.14c8.33282-1.490893,15.564551-6.624982,19.72-14l3.08-5.45l6.37,4.32-6.55,12.27c-2.114934,4.256941-6.053183,7.319206-10.7,8.32l-18.54,4.89-1.79-10.49Z" opacity="0.5" fill="#fff"/><polygon points="185.77,233.85 166.99,239.02 166.8,237.2 170.06,236.46 185.77,233.85" opacity="0.2"/><path d="M174.38,238.65l2,40.93v0c-8.86,2.72-13.84,2.77-27.42,2.78l-3.15-.3-5.5-42.6c-.347082-2.765154,1.440206-5.349185,4.15-6l19.75-4.89l5.1.74c3.35-.81,4.91,5.89,5.07,9.34Z" transform="translate(1.039723 0)" fill="#fff"/><path d="M121.67,280.23l-3.65,3c0,0-3.63,1.13-4.09,3.27-.28,1.3,1.38,2.56,2.74,3.35c1.051797.611021,2.344082.637472,3.42.07c1.51-.82,3.1-3.6,3.1-3.6l2-3.93-3.52-2.16Z" fill="#ffb573"/><path d="M121.69,280.23c.19-.33,4.48-6.3,4.48-6.3l3.33,2.21-5.12,7.43c0,0-4.12-.81-2.69-3.34Z" fill="#ffb573"/><polygon points="122.17,277.96 121.07,279.86 125.67,283.09 127.15,280.75 122.17,277.96"/><polygon points="122.17,277.96 121.07,279.86 125.67,283.09 127.15,280.75 122.17,277.96" opacity="0.7" fill="#fff"/><path d="M139.31,238.27l-6.85,24.3L121.21,278l6.05,3.73l14.49-16.07l7.77-23.13c0,0,.17-9.93-5.69-8.53-2.132969.565305-3.834377,2.172609-4.52,4.27Z" fill="#263238"/><path d="M139.31,238.27l-6.85,24.3L121.21,278l6.05,3.73l14.49-16.07l7.77-23.13c0,0,.17-9.93-5.69-8.53-2.132969.565305-3.834377,2.172609-4.52,4.27Z" opacity="0.5" fill="#fff"/><polygon points="141.75,265.64 142.17,264.4 142.3,250.19 138.93,268.77 141.75,265.64" opacity="0.2"/><path d="M151.65,283.11c0,.54,0,1.08,0,1.64v0c0,.82-.05,1.67-.07,2.53l-10.22-.09q.24-2.94.4-5.89c0-.11,0-.21,0-.32q.12-2,.18-4c.45861-12.553693-.089813-25.123949-1.64-37.59-.014651-.23644-.014651-.47356,0-.71.033743-2.503678,1.757251-4.667317,4.19-5.26l6.28-1.56c0,0,.29,8.31.56,18s.55,20.77.51,26.31c-.08,1.94-.12,4.28-.19,6.94Z" fill="#263238"/><path d="M151.65,283.11c0,.54,0,1.08,0,1.64v0c0,.82-.05,1.67-.07,2.53l-10.22-.09q.24-2.94.4-5.89c0-.11,0-.21,0-.32q.12-2,.18-4c.45861-12.553693-.089813-25.123949-1.64-37.59-.014651-.23644-.014651-.47356,0-.71.033743-2.503678,1.757251-4.667317,4.19-5.26l6.28-1.56c0,0,.29,8.31.56,18s.55,20.77.51,26.31c-.08,1.94-.12,4.28-.19,6.94Z" opacity="0.5" fill="#fff"/><path d="M178.48,283l-9.3,2.08-5-56.52l5.1.74c3.39-.84,4.95,5.86,5.12,9.31l.6,13.43c0,.65.06,1.29.1,1.95c0,.48.06,1,.08,1.46.06.83.11,1.67.17,2.5c0,.62.09,1.24.14,1.86.2,2.6.45,5.18.74,7.77s.62,5,1,7.56c0,.12,0,.25,0,.38.35,2.41.75,4.8,1.18,7.2.04.13.06.22.07.28Z" fill="#263238"/><g opacity="0.5"><path d="M178.48,283l-9.3,2.08-5-56.52l5.1.74c3.39-.84,4.95,5.86,5.12,9.31l.6,13.43c0,.65.06,1.29.1,1.95c0,.48.06,1,.08,1.46.06.83.11,1.67.17,2.5c0,.62.09,1.24.14,1.86.2,2.6.45,5.18.74,7.77s.62,5,1,7.56c0,.12,0,.25,0,.38.35,2.41.75,4.8,1.18,7.2.04.13.06.22.07.28Z" fill="#fff"/></g><polygon points="162.9,232.98 159.63,238.11 154.22,234.77 155.44,232.91 161.31,232.04 162.9,232.98" fill="#263238"/><polygon points="162.9,232.98 159.63,238.11 154.22,234.77 155.44,232.91 161.31,232.04 162.9,232.98" opacity="0.5" fill="#fff"/><path d="M162.92,208.4c0,0-.25-6.47-5.57-3.44l5.57,3.44Z" fill="#263238"/><path d="M162.92,208.4c0,0-.25-6.47-5.57-3.44l5.57,3.44Z" opacity="0.7" fill="#fff"/><path d="M162.06,231.54l-1.74,2.15-2.92.43-4.71-1.45c.017323-.075112.040734-.148688.07-.22c1.27-3.29-.19-9-1.31-12.27l8.17,5.21c-.26,2.37.16,4.93,2.44,6.15Z" fill="#ffb573"/><path d="M156.47,224.54c0,0,1.55.35,3.15.87-.146051,1.117555-.067861,2.253013.23,3.34-2.910661.332438-5.726655-1.15698-7.09-3.75-.1-.51-.21-1-.33-1.48l4.04,1.02Z" opacity="0.1"/><path d="M148.86,214.25c1.45,5.28,2,8.45,5.34,10.63c5,3.3,11.14-.53,11.31-6.12.15-5.07-2.24-12.83-8-13.88-4.074577-.788965-8.019332,1.867706-8.82,5.94-.214221,1.140768-.155973,2.316005.17,3.43Z" fill="#ffb573"/><path d="M164.52,210.16c0-.4-.21-1.28-1.18-.94c0,0-.84-1-1.54-.07c0,0-1.16,0-1.12.73c0,1,.91.19,2.07.47s1.74.5,1.77-.19Z" fill="#263238"/><path d="M164.52,210.16c0-.4-.21-1.28-1.18-.94c0,0-.84-1-1.54-.07c0,0-1.16,0-1.12.73c0,1,.91.19,2.07.47s1.74.5,1.77-.19Z" opacity="0.6" fill="#fff"/><path d="M155.23,212.26c-.21-.33-.46-1.21.55-1.39c0,0,.22-1.3,1.31-.83c0,0,1-.59,1.33.08.44.86-.69.62-1.56,1.43s-1.26,1.29-1.63.71Z" fill="#263238"/><path d="M155.23,212.26c-.21-.33-.46-1.21.55-1.39c0,0,.22-1.3,1.31-.83c0,0,1-.59,1.33.08.44.86-.69.62-1.56,1.43s-1.26,1.29-1.63.71Z" opacity="0.6" fill="#fff"/><path d="M161.61,213c.907697,1.139502,1.967601,2.148935,3.15,3-.474416.600114-1.185816.964934-1.95,1l-1.2-4Z" fill="#ed893e"/><path d="M155.72,202.22c-1.59-.53-5.36.08-6.21,1.52-2.392989-.097414-4.548581,1.437005-5.24,3.73-.23,1.12.14,2.53,1.22,2.89-.877986.562986-1.681055,1.23501-2.39,2-.695003.741573-1.056328,1.735216-1,2.75.106974,1.012956.875591,1.830633,1.88,2-.465028.813655-.802295,1.693922-1,2.61-.244999.994792-.052055,2.046882.53,2.89.631531.832582,1.768515,1.093667,2.7.62h.62c-.139595.524941.117602,1.074375.610141,1.303406s1.078417.071626,1.389859-.373406c.32-.41.49-1.12,1-1.06.14.62.28,1.48.9,1.64.63448.157289,1.304362-.041762,1.75-.52-.7-1.93,1.37-4.8.67-6.74-.607726-1.490159-1.017874-3.053426-1.22-4.65-.13-1.61-2.48-2.56-1.42-3.77c1.004492-1.264807,2.744034-1.678,4.21-1c0-1.16.65-1.11.65-1.11.556807-.24324,1.201103-.170804,1.69.19-.15-.34.34-.87.91-.1.08-.17-.11-.48.16-.59s.4.12.68.2c-.1-.31-1.49-3.91-3.09-4.43Z" fill="#263238"/><path d="M155.72,202.22c-1.59-.53-5.36.08-6.21,1.52-2.392989-.097414-4.548581,1.437005-5.24,3.73-.23,1.12.14,2.53,1.22,2.89-.877986.562986-1.681055,1.23501-2.39,2-.695003.741573-1.056328,1.735216-1,2.75.106974,1.012956.875591,1.830633,1.88,2-.465028.813655-.802295,1.693922-1,2.61-.244999.994792-.052055,2.046882.53,2.89.631531.832582,1.768515,1.093667,2.7.62h.62c-.139595.524941.117602,1.074375.610141,1.303406s1.078417.071626,1.389859-.373406c.32-.41.49-1.12,1-1.06.14.62.28,1.48.9,1.64.63448.157289,1.304362-.041762,1.75-.52-.7-1.93,1.37-4.8.67-6.74-.607726-1.490159-1.017874-3.053426-1.22-4.65-.13-1.61-2.48-2.56-1.42-3.77c1.004492-1.264807,2.744034-1.678,4.21-1c0-1.16.65-1.11.65-1.11.556807-.24324,1.201103-.170804,1.69.19-.15-.34.34-.87.91-.1.08-.17-.11-.48.16-.59s.4.12.68.2c-.1-.31-1.49-3.91-3.09-4.43Z" opacity="0.7" fill="#fff"/><path d="M163.93,217c-1.61-.2-4.13.12-7.66,2.34-1.252615.161984-2.466014-.505386-3-1.65l-.88-1.43-1.18.63-.26,4.51c0,0,1.69,4.35,3.06,4.36c1.067275,1.158364,2.70822,1.59491,4.21,1.12s4.89,1,5.43-1.37c0,0,2.71,1.28,2-2.43c0,0,.47-.73.5-3.61.001878-1.270417-.956583-2.336812-2.22-2.47Z" fill="#263238"/><g opacity="0.7"><path d="M163.93,217c-1.61-.2-4.13.12-7.66,2.34-1.252615.161984-2.466014-.505386-3-1.65l-.88-1.43-1.18.63-.26,4.51c0,0,1.69,4.35,3.06,4.36c1.067275,1.158364,2.70822,1.59491,4.21,1.12s4.89,1,5.43-1.37c0,0,2.71,1.28,2-2.43c0,0,.47-.73.5-3.61.001878-1.270417-.956583-2.336812-2.22-2.47Z" fill="#fff"/></g><path d="M164.2,219.57c-.566626-.1648-1.060337-.517451-1.4-1-.039812.196088-.159427.366766-.33016.471102s-.377182.132921-.56984.078898c-.298641.394026-.6642.732506-1.08,1-.440115.263994-.989885.263994-1.43,0c.332589.45135.859349.71844,1.42.72.608544-.002806,1.182705-.282525,1.56-.76.17076.119411.383059.163475.587235.121883s.382323-.16519.492765-.341883c.434789.376018,1.086853.34976,1.49-.06-.1.11-.33,0-.46,0-.122035-.032893-.224033-.116677-.28-.23Z" opacity="0.1"/><path d="M158.7,212.61c.11.43,0,.83-.3.9s-.59-.22-.71-.64s0-.83.31-.9.58.24.7.64Z" fill="#263238"/><path d="M163.71,211.74c.11.43,0,.83-.3.9s-.6-.21-.71-.64s0-.82.31-.9.57.25.7.64Z" fill="#263238"/><polygon points="165.28,228.39 162.03,227.9 158.01,232 150.26,230.15 148.34,232.44 155.72,237 158.29,233.16 162.41,235.56 165.28,228.39" fill="#263238"/><polygon points="165.28,228.39 162.03,227.9 158.01,232 150.26,230.15 148.34,232.44 155.72,237 158.29,233.16 162.41,235.56 165.28,228.39" opacity="0.7" fill="#fff"/><line x1="139.15" y1="269.04" x2="142.17" y2="265.09" opacity="0.2"/><rect width="15.04" height="22.35" rx="0" ry="0" transform="matrix(.644791-.764359 0.764359 0.644791 102.15406 288.866669)" fill="#287acf"/><rect width="15.04" height="22.35" rx="0" ry="0" transform="matrix(.644791-.764359 0.764359 0.644791 102.15406 288.866669)" opacity="0.2"/><rect width="15.04" height="22.35" rx="0" ry="0" transform="matrix(.644791-.764359 0.764359 0.644791 100.743736 290.53479)" fill="#287acf"/><rect width="15.04" height="22.35" rx="0" ry="0" transform="matrix(.644791-.764359 0.764359 0.644791 100.743736 290.53479)" opacity="0.2"/><rect width="9.14" height="3.78" rx="0.91" ry="0.91" transform="matrix(.644791-.764359 0.764359 0.644791 104.386421 289.618713)" fill="#fff"/><polygon points="128.33,291.84 127.51,292.86 111.08,278.99 111.82,278.08 128.33,291.84" fill="#fff"/><polygon points="111.58,285.47 107.75,290.12 107.27,289.71 111.16,285.11 111.58,285.47" fill="#263238"/><path d="M148.92,216.1l.31.25c.33-.46,1.41-1.84,2-2l3.93-.94c-.013902.139655-.013902.280345,0,.42.180655.70591.636989,1.30982,1.26673,1.676386s1.38023.465134,2.08327.273614c1.493029-.325466,2.458045-1.777417,2.18-3.28-.020699-.094936-.04742-.188458-.08-.28l1.21-.29c0,.09,0,.19,0,.29.178211.707408.634101,1.313091,1.264577,1.680085s1.382287.4643,2.085423.269915c1.494451-.330116,2.458531-1.785081,2.18-3.29-.4-1.82-2.41-1.33-3.17-1.15s-2.2.53-2.39,1.77l-1.41.34c-.7-1-2.25-.65-2.9-.5s-2.08.51-2.36,1.64l-4.06,1c-.59.15-1.75,1.59-2.14,2.12Zm13.31-3.94c-.22-1,.4-1.6,2.07-2s2.48-.15,2.7.85c.227401,1.28792-.6096,2.523493-1.89,2.79-.599566.171065-1.242751.093603-1.784556-.214925s-.936623-.82215-1.095444-1.425075Zm-6.7,1.61c-.22-1,.4-1.59,2.07-2s2.48-.15,2.7.85c.232975,1.289104-.606433,2.52823-1.89,2.79-.599566.171065-1.242751.093603-1.784556-.214925s-.936623-.82215-1.095444-1.425075Z" fill="#263238"/></g></g><g transform="translate(249.42 194.537)"><g transform="translate(-249.419846-194.53688)"><path d="M318.42,153.08c-.223675-38.107648-31.297352-68.818675-69.405-68.595s-68.818675,31.297352-68.595,69.405c.16,27.65,22.27,46.24,36.31,68.05c4.35,6.75,4,32.11,4,32.11l58.55-.34c0,0-.62-25.35,3.64-32.16c13.77-21.97,35.66-40.82,35.5-68.47Z" fill="#287acf"/><path d="M318.42,153.08c-.223675-38.107648-31.297352-68.818675-69.405-68.595s-68.818675,31.297352-68.595,69.405c.16,27.65,22.27,46.24,36.31,68.05c4.35,6.75,4,32.11,4,32.11l58.55-.34c0,0-.62-25.35,3.64-32.16c13.77-21.97,35.66-40.82,35.5-68.47Z" opacity="0.5" fill="#fff"/><path d="M310.22,140.33c0,43.44-27.12,92.7-60.68,92.73s-60.82-55-60.85-92.62c0-23.18,27.17-42,60.73-42s60.78,18.71,60.8,41.89Z" opacity="0.3" fill="#fff"/><path d="M288.86,182.65c.016175,15.827506-9.504035,30.106092-24.120942,36.177029s-31.451613,2.738515-42.653363-8.443211-14.564286-28.010445-8.51951-42.638189s20.306305-24.173486,36.133815-24.185629c10.377002-.010613,20.333059,4.102143,27.677272,11.433228s11.474776,17.279768,11.482728,27.656772Z" opacity="0.4" fill="#fff"/><path d="M276.92,192.55c0,15.18-12.29,19.8-27.47,19.82s-27.45-4.59-27.45-19.77s12.24-19.6,27.42-19.6s27.49,4.37,27.5,19.55Z" opacity="0.4" fill="#fff"/><polygon points="265.73,304.59 232.81,304.59 223.67,292.63 274.88,292.63 265.73,304.59" fill="#287acf"/><polygon points="265.73,304.59 232.81,304.59 223.67,292.63 274.88,292.63 265.73,304.59" opacity="0.5" fill="#fff"/><path d="M217.75,245.81v0c-.002658-.575522.223421-1.128527.6285-1.537357s.955978-.639997,1.5315-.642643l58.51-.3c1.194587-.005556,2.169003.955451,2.18,2.15v0c.005337.576325-.219876,1.130881-.625535,1.540296s-.958115.639729-1.534465.639704l-58.51.31c-.575522.002658-1.128527-.223421-1.537357-.6285s-.639997-.955978-.642643-1.5315Z" fill="#287acf"/><path d="M285.79,254.9c0,4.418278-3.581722,8-8,8h-8.12c-.59244.14504-1.200065.218895-1.81.22L221,263.2c-4.167303-.27352-7.423058-3.706577-7.475421-7.882518s3.116287-7.689556,7.275421-8.067482h8.3c.533278-.134673,1.0801-.208477,1.63-.22h.18l46.89-.08c4.394925.005408,7.962535,3.555158,7.99,7.95Z" fill="#287acf"/><path d="M285.79,254.9c0,4.418278-3.581722,8-8,8h-8.12c-.59244.14504-1.200065.218895-1.81.22L221,263.2c-4.167303-.27352-7.423058-3.706577-7.475421-7.882518s3.116287-7.689556,7.275421-8.067482h8.3c.533278-.134673,1.0801-.208477,1.63-.22h.18l46.89-.08c4.394925.005408,7.962535,3.555158,7.99,7.95Z" fill="#287acf"/><g opacity="0.2"><path d="M285.79,254.9c0,4.418278-3.581722,8-8,8h-8.12c-.59244.14504-1.200065.218895-1.81.22L221,263.2c-4.167303-.27352-7.423058-3.706577-7.475421-7.882518s3.116287-7.689556,7.275421-8.067482h8.3c.533278-.134673,1.0801-.208477,1.63-.22h.18l46.89-.08c4.394925.005408,7.962535,3.555158,7.99,7.95Z" fill="#fff"/></g><path d="M283,270.45c.0811,2.044251-.654669,4.036737-2.044903,5.537665s-3.32063,2.386891-5.365097,2.462335h-7.54c-.551651.145081-1.119591.219014-1.69.22h-43.6c-4.142705-.297646-7.368611-3.716039-7.425929-7.869027s3.073017-7.659108,7.205929-8.070973h7.72c.497251-.126458,1.007088-.196896,1.52-.21h43.77c4.11-.06,7.45,3.48,7.45,7.93Z" fill="#287acf"/><path d="M283,270.45c.0811,2.044251-.654669,4.036737-2.044903,5.537665s-3.32063,2.386891-5.365097,2.462335h-7.54c-.551651.145081-1.119591.219014-1.69.22h-43.6c-4.142705-.297646-7.368611-3.716039-7.425929-7.869027s3.073017-7.659108,7.205929-8.070973h7.72c.497251-.126458,1.007088-.196896,1.52-.21h43.77c4.11-.06,7.45,3.48,7.45,7.93Z" opacity="0.3" fill="#fff"/><path d="M280.22,285.6c0,4.41-3.05,8-6.83,7.95h-7c-.506802.146532-1.03249.217298-1.56.21l-40.31-.08c-3.8,0-6.89-3.59-6.91-8s3-7.85,6.68-7.94h7.13c.456745-.125001.926681-.195492,1.4-.21h.18l40.32.08c3.79,0,6.88,3.58,6.9,7.99Z" fill="#287acf"/><path d="M280.22,285.6c0,4.41-3.05,8-6.83,7.95h-7c-.506802.146532-1.03249.217298-1.56.21l-40.31-.08c-3.8,0-6.89-3.59-6.91-8s3-7.85,6.68-7.94h7.13c.456745-.125001.926681-.195492,1.4-.21h.18l40.32.08c3.79,0,6.88,3.58,6.9,7.99Z" opacity="0.4" fill="#fff"/><path d="M222.25,295.81v0c-.005327-.577248.219572-1.132827.62494-1.543826s.957793-.643538,1.53506-.646174l49.51-.1c1.192314.005419,2.159074.967724,2.17,2.16v0c.005337.576325-.219876,1.130881-.625535,1.540296s-.958115.639729-1.534465.639704l-49.51.1c-.572869.002658-1.123331-.222367-1.530286-.625571s-.637068-.951559-.639714-1.524429Z" fill="#287acf"/></g></g><g><g id="e2BKTtY19Ml330_tr" transform="translate(262.39,144.22) rotate(0)"><g transform="translate(0,0)"><path d="M237.52,147.56l-4.19,2.33c.240484,1.325334.574656,2.631945,1,3.91l4.79-.08c.856109,2.080832,1.986083,4.038108,3.36,5.82l-2.46,4.11c.890674,1.017341,1.849557,1.972882,2.87,2.86l4.11-2.46c1.775881,1.37748,3.730355,2.507778,5.81,3.36l-.08,4.79c1.280185.442283,2.590142.793165,3.92,1.05l2.33-4.19c2.226151.306725,4.483849.306725,6.71,0l2.33,4.19c1.350141-.254055,2.680244-.604961,3.98-1.05l-.08-4.79c2.078511-.854529,4.032685-1.984654,5.81-3.36l4.11,2.46c1.020443-.887118,1.979326-1.842659,2.87-2.86l-2.47-4.11c1.380338-1.779361,2.513926-3.737071,3.37-5.82l4.79.08c.437644-1.278203.788443-2.58451,1.05-3.91l-4.2-2.33c.306637-2.229506.306637-4.490494,0-6.72l4.2-2.33c-.261557-1.32549-.612356-2.631797-1.05-3.91l-4.79.08c-.856109-2.080832-1.986083-4.038108-3.36-5.82l2.46-4.11c-.890556-1.020569-1.849431-1.979444-2.87-2.87l-4.11,2.47c-1.777315-1.375346-3.731489-2.505471-5.81-3.36l.08-4.8c-1.28414-.416118-2.593451-.750125-3.92-1l-2.33,4.2c-2.226151-.306725-4.483849-.306725-6.71,0l-2.33-4.2c-1.326549.249875-2.63586.583882-3.92,1l.08,4.8c-2.079645.852222-4.034119,1.98252-5.81,3.36l-4.11-2.47c-1.020569.890556-1.979444,1.849431-2.87,2.87l2.46,4.11c-1.373917,1.781892-2.503891,3.739168-3.36,5.82l-4.79-.08c-.425344,1.278055-.759516,2.584666-1,3.91l4.19,2.33c-.306637,2.229506-.306637,4.490494,0,6.72h-.06Zm11.42-2.76c.000001-5.521819,3.3268-10.499736,8.428683-12.61191s10.973776-.942503,14.876861,2.963444s5.068451,9.778694,2.952539,14.879028-7.096265,8.423483-12.618083,8.419438c-7.534781-.00552-13.640002-6.115217-13.64-13.65Z" transform="translate(-262.390015-144.220001)" fill="#263238"/></g></g><g id="e2BKTtY19Ml332_tr" transform="translate(231.95,181.86) rotate(0)"><g transform="translate(0,0)"><path d="M216.39,183.56l-4.63,2.57c.153468.715986.34372,1.423591.57,2.12l5.3-.08c.45813,1.038873,1.028165,2.024698,1.7,2.94l-2.73,4.54c.492132.54714,1.01286,1.067868,1.56,1.56l4.54-2.73c.915302.671835,1.901127,1.24187,2.94,1.7l-.08,5.3c.696409.22628,1.404014.416532,2.12.57l2.57-4.63c1.130157.120004,2.269843.120004,3.4,0l2.57,4.63c.719278-.153461,1.430212-.343711,2.13-.57l-.09-5.3c1.038873-.45813,2.024698-1.028165,2.94-1.7l4.54,2.73c.549561-.489574,1.070426-1.010439,1.56-1.56l-2.73-4.54c.671835-.915302,1.24187-1.901127,1.7-2.94l5.3.08c.230915-.695026.421236-1.402886.57-2.12l-4.63-2.57c.120004-1.130157.120004-2.269843,0-3.4l4.63-2.57c-.14876-.720399-.339078-1.431588-.57-2.13l-5.3.09c-.45813-1.038873-1.028165-2.024698-1.7-2.94l2.73-4.54c-.489574-.549561-1.010439-1.070426-1.56-1.56l-4.54,2.73c-.915302-.671835-1.901127-1.24187-2.94-1.7l.09-5.3c-.698412-.230922-1.409601-.42124-2.13-.57l-2.57,4.63c-1.130157-.120004-2.269843-.120004-3.4,0l-2.57-4.63c-.717114.148764-1.424974.339085-2.12.57l.08,5.3c-1.038873.45813-2.024698,1.028165-2.94,1.7l-4.54-2.73c-.549561.489574-1.070426,1.010439-1.56,1.56l2.73,4.54c-.671835.915302-1.24187,1.901127-1.7,2.94l-5.3-.09c-.226289.699788-.416539,1.410722-.57,2.13l4.63,2.57c-.120004,1.130157-.120004,2.269843,0,3.4Zm6.31-1.7c0-5.108634,4.141366-9.25,9.25-9.25s9.25,4.141366,9.25,9.25-4.141366,9.25-9.25,9.25-9.25-4.141366-9.25-9.25Z" transform="translate(-231.950012-181.859985)" fill="#263238"/></g></g></g></svg>
