<svg width="909" height="226" viewBox="0 0 909 226" fill="none" xmlns="http://www.w3.org/2000/svg">
<path d="M96.877 0.970703C95.8673 1.55452 94.3793 2.66911 93.6354 3.51831C91.4566 5.85362 1.16911 130.05 0.531415 131.589C0.265708 132.332 0 134.296 0 135.941C0 140.187 2.01938 143.478 5.95185 145.495L8.76835 146.981H42.9915C70.6251 146.981 77.2146 147.087 77.2146 147.671C77.2146 148.042 75.089 163.328 72.4319 181.692C67.3834 216.987 67.3834 217.04 69.6154 220.862C73.0696 226.806 82.3693 227.815 87.1521 222.72C89.384 220.384 179.778 96.1348 180.469 94.4364C180.734 93.6933 181 91.7295 181 90.0842C181 85.8382 178.981 82.5475 175.048 80.5306L172.232 79.0445H138.009C110.375 79.0445 103.785 78.9384 103.785 78.3546C103.785 77.983 105.911 62.6973 108.568 44.3333C112.235 18.4855 113.245 10.5242 112.873 8.93199C112.182 5.90669 110.641 3.62447 108.143 1.8199C105.167 -0.19696 99.7998 -0.621567 96.877 0.970703Z" fill="#FF6B00"/>
<path d="M268.318 70.356V87.07H233.426V105.126H259.534V121.352H233.426V156H212.564V70.356H268.318ZM275.135 121.84C275.135 114.845 276.436 108.705 279.039 103.418C281.723 98.1313 285.342 94.0647 289.897 91.218C294.451 88.3713 299.535 86.948 305.147 86.948C309.945 86.948 314.134 87.924 317.713 89.876C321.373 91.828 324.179 94.39 326.131 97.562V87.924H346.993V156H326.131V146.362C324.097 149.534 321.251 152.096 317.591 154.048C314.012 156 309.823 156.976 305.025 156.976C299.494 156.976 294.451 155.553 289.897 152.706C285.342 149.778 281.723 145.671 279.039 140.384C276.436 135.016 275.135 128.835 275.135 121.84ZM326.131 121.962C326.131 116.757 324.667 112.649 321.739 109.64C318.892 106.631 315.395 105.126 311.247 105.126C307.099 105.126 303.561 106.631 300.633 109.64C297.786 112.568 296.363 116.635 296.363 121.84C296.363 127.045 297.786 131.193 300.633 134.284C303.561 137.293 307.099 138.798 311.247 138.798C315.395 138.798 318.892 137.293 321.739 134.284C324.667 131.275 326.131 127.167 326.131 121.962ZM389.779 156.976C383.842 156.976 378.555 155.959 373.919 153.926C369.283 151.893 365.623 149.127 362.939 145.63C360.255 142.051 358.751 138.066 358.425 133.674H379.043C379.287 136.033 380.385 137.944 382.337 139.408C384.289 140.872 386.689 141.604 389.535 141.604C392.138 141.604 394.131 141.116 395.513 140.14C396.977 139.083 397.709 137.741 397.709 136.114C397.709 134.162 396.693 132.739 394.659 131.844C392.626 130.868 389.332 129.811 384.777 128.672C379.897 127.533 375.831 126.354 372.577 125.134C369.324 123.833 366.518 121.84 364.159 119.156C361.801 116.391 360.621 112.69 360.621 108.054C360.621 104.15 361.679 100.612 363.793 97.44C365.989 94.1867 369.161 91.6247 373.309 89.754C377.539 87.8833 382.541 86.948 388.315 86.948C396.855 86.948 403.565 89.0627 408.445 93.292C413.407 97.5213 416.253 103.133 416.985 110.128H397.709C397.384 107.769 396.327 105.899 394.537 104.516C392.829 103.133 390.552 102.442 387.705 102.442C385.265 102.442 383.395 102.93 382.093 103.906C380.792 104.801 380.141 106.061 380.141 107.688C380.141 109.64 381.158 111.104 383.191 112.08C385.306 113.056 388.559 114.032 392.951 115.008C397.994 116.309 402.101 117.611 405.273 118.912C408.445 120.132 411.211 122.165 413.569 125.012C416.009 127.777 417.27 131.519 417.351 136.236C417.351 140.221 416.213 143.8 413.935 146.972C411.739 150.063 408.527 152.503 404.297 154.292C400.149 156.081 395.31 156.976 389.779 156.976ZM468.057 138.31V156H457.443C449.879 156 443.982 154.17 439.753 150.51C435.523 146.769 433.409 140.709 433.409 132.332V105.248H425.113V87.924H433.409V71.332H454.271V87.924H467.935V105.248H454.271V132.576C454.271 134.609 454.759 136.073 455.735 136.968C456.711 137.863 458.337 138.31 460.615 138.31H468.057ZM500.539 70.356V156H479.677V70.356H500.539ZM557.138 87.192C565.108 87.192 571.452 89.7947 576.17 95C580.968 100.124 583.368 107.2 583.368 116.228V156H562.628V119.034C562.628 114.479 561.448 110.941 559.09 108.42C556.731 105.899 553.559 104.638 549.574 104.638C545.588 104.638 542.416 105.899 540.058 108.42C537.699 110.941 536.52 114.479 536.52 119.034V156H515.658V87.924H536.52V96.952C538.634 93.9427 541.481 91.584 545.06 89.876C548.638 88.0867 552.664 87.192 557.138 87.192ZM625.559 156.976C619.621 156.976 614.335 155.959 609.699 153.926C605.063 151.893 601.403 149.127 598.719 145.63C596.035 142.051 594.53 138.066 594.205 133.674H614.823C615.067 136.033 616.165 137.944 618.117 139.408C620.069 140.872 622.468 141.604 625.315 141.604C627.917 141.604 629.91 141.116 631.293 140.14C632.757 139.083 633.489 137.741 633.489 136.114C633.489 134.162 632.472 132.739 630.439 131.844C628.405 130.868 625.111 129.811 620.557 128.672C615.677 127.533 611.61 126.354 608.357 125.134C605.103 123.833 602.297 121.84 599.939 119.156C597.58 116.391 596.401 112.69 596.401 108.054C596.401 104.15 597.458 100.612 599.573 97.44C601.769 94.1867 604.941 91.6247 609.089 89.754C613.318 87.8833 618.32 86.948 624.095 86.948C632.635 86.948 639.345 89.0627 644.225 93.292C649.186 97.5213 652.033 103.133 652.765 110.128H633.489C633.163 107.769 632.106 105.899 630.317 104.516C628.609 103.133 626.331 102.442 623.485 102.442C621.045 102.442 619.174 102.93 617.873 103.906C616.571 104.801 615.921 106.061 615.921 107.688C615.921 109.64 616.937 111.104 618.971 112.08C621.085 113.056 624.339 114.032 628.731 115.008C633.773 116.309 637.881 117.611 641.053 118.912C644.225 120.132 646.99 122.165 649.349 125.012C651.789 127.777 653.049 131.519 653.131 136.236C653.131 140.221 651.992 143.8 649.715 146.972C647.519 150.063 644.306 152.503 640.077 154.292C635.929 156.081 631.089 156.976 625.559 156.976ZM676.386 80.848C672.726 80.848 669.717 79.7907 667.358 77.676C665.081 75.48 663.942 72.796 663.942 69.624C663.942 66.3707 665.081 63.6867 667.358 61.572C669.717 59.376 672.726 58.278 676.386 58.278C679.965 58.278 682.893 59.376 685.17 61.572C687.529 63.6867 688.708 66.3707 688.708 69.624C688.708 72.796 687.529 75.48 685.17 77.676C682.893 79.7907 679.965 80.848 676.386 80.848ZM686.756 87.924V156H665.894V87.924H686.756ZM727.739 86.948C732.537 86.948 736.726 87.924 740.305 89.876C743.965 91.828 746.771 94.39 748.723 97.562V87.924H769.585V155.878C769.585 162.141 768.324 167.793 765.803 172.836C763.363 177.96 759.581 182.027 754.457 185.036C749.414 188.045 743.111 189.55 735.547 189.55C725.461 189.55 717.287 187.151 711.025 182.352C704.762 177.635 701.183 171.209 700.289 163.076H720.907C721.557 165.679 723.103 167.712 725.543 169.176C727.983 170.721 730.992 171.494 734.571 171.494C738.881 171.494 742.297 170.233 744.819 167.712C747.421 165.272 748.723 161.327 748.723 155.878V146.24C746.689 149.412 743.883 152.015 740.305 154.048C736.726 156 732.537 156.976 727.739 156.976C722.127 156.976 717.043 155.553 712.489 152.706C707.934 149.778 704.315 145.671 701.631 140.384C699.028 135.016 697.727 128.835 697.727 121.84C697.727 114.845 699.028 108.705 701.631 103.418C704.315 98.1313 707.934 94.0647 712.489 91.218C717.043 88.3713 722.127 86.948 727.739 86.948ZM748.723 121.962C748.723 116.757 747.259 112.649 744.331 109.64C741.484 106.631 737.987 105.126 733.839 105.126C729.691 105.126 726.153 106.631 723.225 109.64C720.378 112.568 718.955 116.635 718.955 121.84C718.955 127.045 720.378 131.193 723.225 134.284C726.153 137.293 729.691 138.798 733.839 138.798C737.987 138.798 741.484 137.293 744.331 134.284C747.259 131.275 748.723 127.167 748.723 121.962ZM826.523 87.192C834.331 87.192 840.594 89.7947 845.311 95C850.029 100.124 852.387 107.2 852.387 116.228V156H831.647V119.034C831.647 114.479 830.468 110.941 828.109 108.42C825.751 105.899 822.579 104.638 818.593 104.638C814.608 104.638 811.436 105.899 809.077 108.42C806.719 110.941 805.539 114.479 805.539 119.034V156H784.677V65.72H805.539V97.074C807.654 94.0647 810.541 91.6653 814.201 89.876C817.861 88.0867 821.969 87.192 826.523 87.192ZM904.826 138.31V156H894.212C886.648 156 880.752 154.17 876.522 150.51C872.293 146.769 870.178 140.709 870.178 132.332V105.248H861.882V87.924H870.178V71.332H891.04V87.924H904.704V105.248H891.04V132.576C891.04 134.609 891.528 136.073 892.504 136.968C893.48 137.863 895.107 138.31 897.384 138.31H904.826Z" fill="#171920"/>
</svg>
