<svg width="359" height="117" viewBox="0 0 359 117" fill="none" xmlns="http://www.w3.org/2000/svg">
<g clip-path="url(#clip0_3_19)">
<path opacity="0.994" fill-rule="evenodd" clip-rule="evenodd" d="M42.8236 -0.0512257C45.0802 -0.0512257 47.3367 -0.0512257 49.5933 -0.0512257C60.2498 0.875035 69.4299 5.00726 77.1337 12.3454C77.2021 12.4479 77.2021 12.5503 77.1337 12.6528C74.2595 15.5237 71.3875 18.3924 68.5177 21.2588C60.0572 13.7196 50.2274 11.0388 39.0284 13.2163C26.8038 16.3424 18.7519 23.9068 14.8729 35.9094C12.1115 46.2368 13.6843 55.8332 19.5912 64.6983C25.6385 72.8409 33.7587 77.3317 43.9519 78.1707C51.1476 78.7008 57.8147 77.0958 63.9533 73.3555C67.0772 71.2939 69.6928 68.7155 71.8 65.6204C73.9337 61.9416 75.2158 57.9802 75.6464 53.736C65.6629 53.736 55.6792 53.736 45.6956 53.736C45.6956 49.5696 45.6956 45.4033 45.6956 41.2369C59.7722 41.2028 73.8415 41.237 87.9037 41.3393C89.33 50.1354 88.4068 58.673 85.1343 66.9523C81.8588 74.3659 76.7815 80.2228 69.9024 84.5228C62.1903 89.0625 53.8479 91.1457 44.875 90.7723C31.1673 90.1494 19.7989 84.7366 10.77 74.5337C4.39617 66.9889 0.789073 58.2805 -0.0512695 48.4085C-0.0512695 46.3936 -0.0512695 44.3788 -0.0512695 42.3638C1.45811 27.236 8.53554 15.5053 21.181 7.17163C27.8236 3.05325 35.0379 0.645634 42.8236 -0.0512257Z" fill="#8C8C8C"/>
<path opacity="0.995" fill-rule="evenodd" clip-rule="evenodd" d="M285.61 3.02233C289.952 3.02233 294.295 3.02233 298.637 3.02233C298.637 31.6747 298.637 60.327 298.637 88.9794C294.295 88.9794 289.952 88.9794 285.61 88.9794C285.736 60.3271 285.736 31.6747 285.61 3.02233Z" fill="#8C8C8C"/>
<path opacity="0.997" fill-rule="evenodd" clip-rule="evenodd" d="M121.496 32.2211C131.66 32.1448 139.848 36.0722 146.062 44.0031C150.289 50.0626 152.1 56.7903 151.498 64.1861C150.531 73.6759 146.103 81.0353 138.215 86.2645C129.775 91.227 120.92 92.1149 111.649 88.9282C101.859 85.0322 95.7899 77.9459 93.4426 67.6694C91.9594 59.9265 93.1903 52.6525 97.1352 45.8472C102.2 38.166 109.329 33.7093 118.521 32.4772C119.529 32.3933 120.52 32.308 121.496 32.2211ZM121.804 43.7982C129.348 44.1162 134.561 47.7362 137.446 54.6581C139.401 60.3249 138.957 65.789 136.112 71.0504C131.94 77.5301 126.042 80.0743 118.419 78.683C112.968 77.132 109.19 73.734 107.085 68.4891C104.981 62.63 105.459 56.9952 108.521 51.5845C111.64 46.7813 116.068 44.1857 121.804 43.7982Z" fill="#8C8C8C"/>
<path opacity="0.995" fill-rule="evenodd" clip-rule="evenodd" d="M251.556 116.949C249.813 116.949 248.069 116.949 246.325 116.949C236.629 115.907 229.262 111.228 224.221 102.913C223.689 101.985 223.21 101.029 222.785 100.044C222.716 99.9418 222.716 99.8393 222.785 99.7369C226.413 98.0565 230.088 96.4856 233.812 95.0241C233.88 95.0582 233.948 95.0924 234.017 95.1265C235.828 99.2071 238.735 102.229 242.735 104.194C246.742 105.687 250.777 105.756 254.839 104.398C259.275 102.63 262.131 99.4369 263.403 94.8192C264.213 91.3045 264.453 87.7528 264.121 84.1642C258.643 89.6023 252.061 91.7026 244.376 90.465C235.851 88.78 229.27 84.2891 224.631 76.9926C220.106 69.2208 219.149 61.0246 221.759 52.4041C224.504 44.375 229.684 38.484 237.299 34.7312C243.84 31.7158 250.473 31.4768 257.198 34.014C258.611 34.6342 259.945 35.3854 261.198 36.268C262.173 37.1047 263.147 37.9413 264.121 38.778C264.267 37.178 264.318 35.5729 264.275 33.9628C268.377 34.0547 272.48 34.0889 276.584 34.0652C276.601 51.8577 276.584 69.6502 276.533 87.4426C276.544 92.6793 275.518 97.6994 273.455 102.503C269.859 109.951 263.995 114.544 255.864 116.283C254.423 116.569 252.987 116.791 251.556 116.949ZM247.864 43.9006C255.244 43.6323 260.459 46.8424 263.506 53.5311C265.626 58.8927 265.626 64.2544 263.506 69.616C261.115 75.0072 256.996 78.1662 251.146 79.0928C243.543 79.3474 238.123 76.0518 234.889 69.2062C232.747 64.0029 232.782 58.812 234.991 53.6335C237.584 48.1467 241.875 44.9024 247.864 43.9006Z" fill="#8C8C8C"/>
<path opacity="0.997" fill-rule="evenodd" clip-rule="evenodd" d="M358.949 53.8384C358.949 53.975 358.949 54.1117 358.949 54.2482C346.108 59.5854 333.252 64.8959 320.382 70.1795C320.206 70.2331 320.068 70.3355 319.972 70.4869C323.24 76.7646 328.436 79.6332 335.563 79.0928C339.017 78.7859 342.06 77.5223 344.691 75.3021C346.019 73.9433 347.301 72.5602 348.538 71.1528C351.837 73.3124 355.119 75.4981 358.385 77.7097C358.417 77.854 358.383 77.9905 358.282 78.1195C350.932 87.9461 341.136 92.0271 328.895 90.3625C318.994 88.494 311.865 83.047 307.509 74.0214C304.294 66.2268 304.054 58.338 306.791 50.3551C310.216 41.2652 316.627 35.4767 326.023 32.9895C337.507 30.5843 346.721 34.0506 353.666 43.3884C355.89 46.6358 357.651 50.1191 358.949 53.8384ZM333.101 43.5933C336.803 43.6244 339.931 44.9563 342.486 47.5889C343.038 48.2386 343.448 48.9558 343.717 49.7404C335.077 53.3979 326.41 56.9837 317.715 60.4978C317.755 53.258 321.004 48.05 327.459 44.8739C329.276 44.104 331.157 43.6772 333.101 43.5933Z" fill="#8C8C8C"/>
<path opacity="0.995" fill-rule="evenodd" clip-rule="evenodd" d="M185.193 32.2211C194.559 32.1202 202.37 35.5011 208.63 42.3638C213.137 47.9453 215.411 54.3486 215.451 61.5736C215.236 72.5947 210.484 80.9958 201.194 86.7767C193.046 91.2104 184.567 91.9618 175.756 89.0306C165.463 85.0182 159.258 77.5905 157.14 66.7474C155.842 58.7107 157.415 51.3 161.858 44.5153C167.665 36.7393 175.443 32.6413 185.193 32.2211ZM185.398 43.7982C192.558 43.9057 197.704 47.1501 200.835 53.5311C203.312 59.4998 203.038 65.3396 200.014 71.0504C197.135 75.6744 192.981 78.3553 187.552 79.0928C179.948 79.3136 174.495 76.018 171.192 69.2062C168.876 63.4608 169.115 57.826 171.91 52.3017C174.945 47.1733 179.442 44.3388 185.398 43.7982Z" fill="#8C8C8C"/>
</g>
<defs>
<clipPath id="clip0_3_19">
<rect width="359" height="117" fill="white"/>
</clipPath>
</defs>
</svg>
