<svg width="397" height="497" viewBox="0 0 397 497" fill="none" xmlns="http://www.w3.org/2000/svg">
<path d="M212.487 2.1347C210.272 3.41861 207.009 5.86969 205.377 7.73718C200.598 12.8728 2.5643 285.995 1.16559 289.38C0.582795 291.014 0 295.332 0 298.951C0 308.288 4.42924 315.525 13.0546 319.96L19.2322 323.228H94.2962C154.907 323.228 169.36 323.462 169.36 324.745C169.36 325.562 164.698 359.177 158.87 399.562C147.797 477.18 147.797 477.297 152.692 485.701C160.269 498.773 180.666 500.991 191.157 489.786C196.052 484.65 394.319 211.411 395.834 207.676C396.417 206.042 397 201.724 397 198.106C397 188.768 392.571 181.531 383.945 177.096L377.768 173.828H302.704C242.093 173.828 227.64 173.595 227.64 172.311C227.64 171.494 232.302 137.879 238.13 97.4939C246.173 40.6519 248.387 23.144 247.571 19.6425C246.056 12.9895 242.676 7.97064 237.198 4.0022C230.67 -0.433136 218.898 -1.36688 212.487 2.1347Z" fill="#FF6B00"/>
</svg>
