<svg width="845" height="192" viewBox="0 0 845 192" fill="none" xmlns="http://www.w3.org/2000/svg">
<path d="M229.632 51.656V66.12H205.824V141H187.904V66.12H164.096V51.656H229.632ZM300.947 104.008C300.947 106.568 300.776 108.872 300.435 110.92H248.595C249.022 116.04 250.814 120.051 253.971 122.952C257.128 125.853 261.011 127.304 265.619 127.304C272.275 127.304 277.011 124.445 279.827 118.728H299.155C297.107 125.555 293.182 131.187 287.379 135.624C281.576 139.976 274.451 142.152 266.003 142.152C259.176 142.152 253.032 140.659 247.571 137.672C242.195 134.6 237.971 130.291 234.899 124.744C231.912 119.197 230.419 112.797 230.419 105.544C230.419 98.2053 231.912 91.7627 234.899 86.216C237.886 80.6693 242.067 76.4027 247.443 73.416C252.819 70.4293 259.006 68.936 266.003 68.936C272.744 68.936 278.76 70.3867 284.051 73.288C289.427 76.1893 293.566 80.328 296.467 85.704C299.454 90.9947 300.947 97.096 300.947 104.008ZM282.387 98.888C282.302 94.28 280.638 90.6107 277.395 87.88C274.152 85.064 270.184 83.656 265.491 83.656C261.054 83.656 257.299 85.0213 254.227 87.752C251.24 90.3973 249.406 94.1093 248.723 98.888H282.387ZM301.739 105.544C301.739 98.2053 303.232 91.8053 306.219 86.344C309.206 80.7973 313.344 76.5307 318.635 73.544C323.926 70.472 329.984 68.936 336.811 68.936C345.6 68.936 352.854 71.1547 358.571 75.592C364.374 79.944 368.256 86.088 370.219 94.024H350.891C349.867 90.952 348.118 88.5627 345.643 86.856C343.254 85.064 340.267 84.168 336.683 84.168C331.563 84.168 327.51 86.0453 324.523 89.8C321.536 93.4693 320.043 98.7173 320.043 105.544C320.043 112.285 321.536 117.533 324.523 121.288C327.51 124.957 331.563 126.792 336.683 126.792C343.936 126.792 348.672 123.549 350.891 117.064H370.219C368.256 124.744 364.374 130.845 358.571 135.368C352.768 139.891 345.515 142.152 336.811 142.152C329.984 142.152 323.926 140.659 318.635 137.672C313.344 134.6 309.206 130.333 306.219 124.872C303.232 119.325 301.739 112.883 301.739 105.544ZM415.603 69.064C420.979 69.064 425.758 70.2587 429.939 72.648C434.12 74.952 437.363 78.408 439.667 83.016C442.056 87.5387 443.251 93 443.251 99.4V141H425.331V101.832C425.331 96.2 423.923 91.8907 421.107 88.904C418.291 85.832 414.451 84.296 409.587 84.296C404.638 84.296 400.712 85.832 397.811 88.904C394.995 91.8907 393.587 96.2 393.587 101.832V141H375.667V46.28H393.587V78.92C395.891 75.848 398.963 73.4587 402.803 71.752C406.643 69.96 410.91 69.064 415.603 69.064ZM470.532 51.656V141H452.612V51.656H470.532ZM519.853 69.064C528.301 69.064 535.128 71.752 540.333 77.128C545.538 82.4187 548.141 89.8427 548.141 99.4V141H530.221V101.832C530.221 96.2 528.813 91.8907 525.997 88.904C523.181 85.832 519.341 84.296 514.477 84.296C509.528 84.296 505.602 85.832 502.701 88.904C499.885 91.8907 498.477 96.2 498.477 101.832V141H480.557V70.088H498.477V78.92C500.866 75.848 503.896 73.4587 507.565 71.752C511.32 69.96 515.416 69.064 519.853 69.064ZM584.638 142.152C578.835 142.152 573.63 141.128 569.022 139.08C564.414 136.947 560.745 134.088 558.014 130.504C555.369 126.92 553.918 122.952 553.662 118.6H571.71C572.051 121.331 573.374 123.592 575.678 125.384C578.067 127.176 581.011 128.072 584.51 128.072C587.923 128.072 590.569 127.389 592.446 126.024C594.409 124.659 595.39 122.909 595.39 120.776C595.39 118.472 594.195 116.765 591.806 115.656C589.502 114.461 585.79 113.181 580.67 111.816C575.379 110.536 571.027 109.213 567.614 107.848C564.286 106.483 561.385 104.392 558.91 101.576C556.521 98.76 555.326 94.9627 555.326 90.184C555.326 86.2587 556.435 82.6747 558.654 79.432C560.958 76.1893 564.201 73.6293 568.382 71.752C572.649 69.8747 577.641 68.936 583.358 68.936C591.806 68.936 598.547 71.0693 603.582 75.336C608.617 79.5173 611.39 85.192 611.902 92.36H594.75C594.494 89.544 593.299 87.3253 591.166 85.704C589.118 83.9973 586.345 83.144 582.846 83.144C579.603 83.144 577.086 83.7413 575.294 84.936C573.587 86.1307 572.734 87.7947 572.734 89.928C572.734 92.3173 573.929 94.152 576.318 95.432C578.707 96.6267 582.419 97.864 587.454 99.144C592.574 100.424 596.798 101.747 600.126 103.112C603.454 104.477 606.313 106.611 608.702 109.512C611.177 112.328 612.457 116.083 612.542 120.776C612.542 124.872 611.39 128.541 609.086 131.784C606.867 135.027 603.625 137.587 599.358 139.464C595.177 141.256 590.27 142.152 584.638 142.152ZM628.66 61.64C625.503 61.64 622.857 60.6587 620.724 58.696C618.676 56.648 617.652 54.1307 617.652 51.144C617.652 48.1573 618.676 45.6827 620.724 43.72C622.857 41.672 625.503 40.648 628.66 40.648C631.817 40.648 634.42 41.672 636.468 43.72C638.601 45.6827 639.668 48.1573 639.668 51.144C639.668 54.1307 638.601 56.648 636.468 58.696C634.42 60.6587 631.817 61.64 628.66 61.64ZM637.492 70.088V141H619.572V70.088H637.492ZM675.293 68.936C680.584 68.936 685.234 70.0027 689.245 72.136C693.256 74.184 696.413 76.872 698.717 80.2V70.088H716.765V141.512C716.765 148.083 715.442 153.928 712.797 159.048C710.152 164.253 706.184 168.349 700.893 171.336C695.602 174.408 689.202 175.944 681.693 175.944C671.624 175.944 663.346 173.597 656.861 168.904C650.461 164.211 646.834 157.811 645.981 149.704H663.773C664.712 152.947 666.717 155.507 669.789 157.384C672.946 159.347 676.744 160.328 681.181 160.328C686.386 160.328 690.61 158.749 693.853 155.592C697.096 152.52 698.717 147.827 698.717 141.512V130.504C696.413 133.832 693.213 136.605 689.117 138.824C685.106 141.043 680.498 142.152 675.293 142.152C669.32 142.152 663.858 140.616 658.909 137.544C653.96 134.472 650.034 130.163 647.133 124.616C644.317 118.984 642.909 112.541 642.909 105.288C642.909 98.12 644.317 91.7627 647.133 86.216C650.034 80.6693 653.917 76.4027 658.781 73.416C663.73 70.4293 669.234 68.936 675.293 68.936ZM698.717 105.544C698.717 101.192 697.864 97.48 696.157 94.408C694.45 91.2507 692.146 88.8613 689.245 87.24C686.344 85.5333 683.229 84.68 679.901 84.68C676.573 84.68 673.501 85.4907 670.685 87.112C667.869 88.7333 665.565 91.1227 663.773 94.28C662.066 97.352 661.213 101.021 661.213 105.288C661.213 109.555 662.066 113.309 663.773 116.552C665.565 119.709 667.869 122.141 670.685 123.848C673.586 125.555 676.658 126.408 679.901 126.408C683.229 126.408 686.344 125.597 689.245 123.976C692.146 122.269 694.45 119.88 696.157 116.808C697.864 113.651 698.717 109.896 698.717 105.544ZM766.523 69.064C771.899 69.064 776.678 70.2587 780.859 72.648C785.04 74.952 788.283 78.408 790.587 83.016C792.976 87.5387 794.171 93 794.171 99.4V141H776.251V101.832C776.251 96.2 774.843 91.8907 772.027 88.904C769.211 85.832 765.371 84.296 760.507 84.296C755.558 84.296 751.632 85.832 748.731 88.904C745.915 91.8907 744.507 96.2 744.507 101.832V141H726.587V46.28H744.507V78.92C746.811 75.848 749.883 73.4587 753.723 71.752C757.563 69.96 761.83 69.064 766.523 69.064ZM824.396 84.808V119.112C824.396 121.501 824.951 123.251 826.06 124.36C827.255 125.384 829.217 125.896 831.948 125.896H840.268V141H829.004C813.9 141 806.348 133.661 806.348 118.984V84.808H797.9V70.088H806.348V52.552H824.396V70.088H840.268V84.808H824.396Z" fill="#171920"/>
<path d="M57.4304 63.6771H3.09957C-1.92124 63.6771 0.359617 61.3948 1.66852 59.823L20.7763 38.2133C21.9954 37.0005 22.5758 37.0005 22.5758 37.0005C22.5758 37.0005 22.5758 37.0005 22.5758 37.0005H84.778C85.9916 37.0005 86.9753 37.0005 86.9753 39.1907L86.4606 141.142C86.4606 141.739 86.2161 142.308 85.788 142.719C85.7081 142.795 85.6271 142.871 85.5544 142.955L63.4432 168.41C60.0641 172.107 59.6223 168.444 59.6223 166.591L59.6231 65.8673C59.6231 63.6771 58.6439 63.6771 57.4304 63.6771Z" fill="#500BE1"/>
<path d="M95.7363 66.7136V39.1907C95.7363 37.9811 96.9605 37.0005 98.1741 37.0005H120.522C121.501 37.0282 123.794 36.7325 122.72 38.8474L122.452 39.2791L121.501 40.4355L97.374 68.3295C95.6184 70.1071 95.7363 67.9232 95.7363 66.7136Z" fill="#500BE1"/>
<path d="M96.0987 127.054L96.0995 82.241C96.0995 81.0314 96.2631 80.4219 97.4968 79.0874L121.421 51.4757C123.155 49.3963 122.903 52.0388 122.903 53.2484V100.935C122.903 102.275 122.413 102.957 121.864 103.581L99.6777 128.757C96.8259 131.897 96.0987 128.895 96.0987 127.054Z" fill="#500BE1"/>
</svg>
