<svg width="459" height="497" viewBox="0 0 459 497" fill="none" xmlns="http://www.w3.org/2000/svg">
<path d="M214.025 99.5156H11.5511C-7.15985 99.5156 1.34018 91.002 6.21806 85.1384L77.4269 4.52615C81.9701 0.00203002 84.133 0.00202862 84.133 0.00202862C84.133 0.00202862 84.133 0.00202862 84.133 0.00202862H315.941C320.464 0.00202862 324.13 0.00202847 324.13 8.17232L322.212 388.488C322.212 390.867 321.172 393.126 319.369 394.676C319.285 394.749 319.205 394.826 319.133 394.909L236.433 490.211C223.84 504.002 222.194 490.338 222.194 483.425L222.197 107.686C222.197 99.5156 218.548 99.5156 214.025 99.5156Z" fill="#500BE1"/>
<path d="M356.78 110.843V8.17232C356.78 3.65999 361.342 0.00202862 365.864 0.00202862H449.15C452.797 0.105301 461.34 -0.997985 457.34 6.89144L456.34 8.50203L452.797 12.8158L362.883 116.871C356.34 123.502 356.78 115.355 356.78 110.843Z" fill="#500BE1"/>
<path d="M358.13 335.934L358.133 168.766C358.133 164.254 358.743 161.98 363.34 157.002L452.5 54C458.96 46.2431 458.023 56.1003 458.023 60.6126V238.5C458.023 243.5 456.194 246.045 454.148 248.372L371.468 342.287C360.84 354.002 358.13 342.805 358.13 335.934Z" fill="#500BE1"/>
</svg>
