<svg width="119" height="104" viewBox="0 0 119 104" fill="none" xmlns="http://www.w3.org/2000/svg">
<path d="M59.51 82.14C60.0513 82.14 60.49 81.7012 60.49 81.16C60.49 80.6188 60.0513 80.18 59.51 80.18C58.9688 80.18 58.53 80.6188 58.53 81.16C58.53 81.7012 58.9688 82.14 59.51 82.14Z" fill="#4A5059"/>
<path d="M31.04 8.35999V12.66" stroke="#4A5059" stroke-linecap="round" stroke-linejoin="round"/>
<path d="M28.89 10.51H33.2" stroke="#4A5059" stroke-linecap="round" stroke-linejoin="round"/>
<path d="M80 35.5C71.62 35.5 63.11 35.16 55.14 32.94C47.17 30.72 40.14 26.56 33.74 21.69C29.54 18.52 25.74 15.99 20.29 16.37C14.9708 16.6566 9.88431 18.6443 5.78004 22.04C-1.14996 28.1 -0.0999627 39.31 2.66004 47.19C6.83004 59.04 19.5 67.29 30.25 72.66C42.68 78.87 56.33 82.48 70.03 84.55C82.03 86.38 97.44 87.7 107.84 79.86C117.4 72.66 120.02 56.22 117.68 45.12C117.109 41.8398 115.359 38.881 112.76 36.8C106.05 31.89 96.04 35.17 88.5 35.33C85.7 35.39 82.86 35.5 80 35.5Z" fill="#272933"/>
<path d="M66.45 2.49998C66.9912 2.49998 67.43 2.06122 67.43 1.51998C67.43 0.978738 66.9912 0.539978 66.45 0.539978C65.9087 0.539978 65.47 0.978738 65.47 1.51998C65.47 2.06122 65.9087 2.49998 66.45 2.49998Z" fill="#4A5059"/>
<path d="M15.54 78.81V83.11" stroke="#4A5059" stroke-linecap="round" stroke-linejoin="round"/>
<path d="M13.38 80.96H17.69" stroke="#4A5059" stroke-linecap="round" stroke-linejoin="round"/>
<path d="M59.92 104.01C80.1943 104.01 96.63 102.985 96.63 101.72C96.63 100.455 80.1943 99.43 59.92 99.43C39.6456 99.43 23.21 100.455 23.21 101.72C23.21 102.985 39.6456 104.01 59.92 104.01Z" fill="#272933"/>
<path d="M89.42 77.19H26.02C25.5956 77.1897 25.1764 77.0972 24.7913 76.9189C24.4062 76.7407 24.0644 76.4809 23.7896 76.1576C23.5147 75.8342 23.3134 75.4551 23.1995 75.0463C23.0856 74.6375 23.0619 74.2088 23.13 73.79L31.23 24.61C31.3436 23.9255 31.6965 23.3037 32.2257 22.855C32.7549 22.4064 33.4262 22.1601 34.12 22.16H97.5C97.9243 22.1603 98.3436 22.2527 98.7287 22.431C99.1138 22.6092 99.4556 22.869 99.7304 23.1924C100.005 23.5157 100.207 23.8949 100.32 24.3037C100.434 24.7125 100.458 25.1411 100.39 25.56L92.29 74.74C92.1788 75.4219 91.8294 76.0423 91.3039 76.4908C90.7784 76.9394 90.1109 77.1872 89.42 77.19Z" fill="#2D333E" stroke="#4A5059" stroke-miterlimit="10"/>
<path d="M90.1935 20.871L52.5548 4.06593C51.4453 3.57058 50.1443 4.06841 49.649 5.17787L37.7199 31.8957C37.2245 33.0052 37.7224 34.3062 38.8318 34.8015L76.4706 51.6066C77.58 52.102 78.881 51.6042 79.3764 50.4947L91.3055 23.7768C91.8008 22.6674 91.303 21.3664 90.1935 20.871Z" fill="#2D333E" stroke="#4A5059" stroke-miterlimit="10"/>
<path d="M58.08 26.05C59.0829 24.69 60.5205 23.7136 62.1545 23.2827C63.7885 22.8518 65.5206 22.9924 67.0638 23.6811C68.6069 24.3698 69.8683 25.5652 70.6388 27.0692C71.4092 28.5731 71.6425 30.2953 71.3 31.95" stroke="#4A5059" stroke-width="0.68" stroke-linecap="round" stroke-linejoin="round"/>
<path d="M76.0901 24.54C76.6589 24.54 77.1201 24.0788 77.1201 23.51C77.1201 22.9411 76.6589 22.48 76.0901 22.48C75.5212 22.48 75.0601 22.9411 75.0601 23.51C75.0601 24.0788 75.5212 24.54 76.0901 24.54Z" fill="#4A5059"/>
<path d="M61.17 17.88C61.7389 17.88 62.2 17.4189 62.2 16.85C62.2 16.2812 61.7389 15.82 61.17 15.82C60.6012 15.82 60.14 16.2812 60.14 16.85C60.14 17.4189 60.6012 17.88 61.17 17.88Z" fill="#4A5059"/>
<path d="M89.14 77.17H25.43C25.0449 77.1713 24.6633 77.0964 24.3072 76.9497C23.9511 76.8029 23.6276 76.5871 23.3552 76.3148C23.0829 76.0424 22.8671 75.7189 22.7204 75.3628C22.5736 75.0067 22.4987 74.6251 22.5 74.24V29.24C22.4987 28.8557 22.5733 28.4749 22.7194 28.1195C22.8656 27.7641 23.0804 27.441 23.3517 27.1688C23.623 26.8966 23.9453 26.6806 24.3003 26.5332C24.6552 26.3859 25.0357 26.31 25.42 26.31H48.62C49.1603 26.3101 49.69 26.4596 50.1506 26.742C50.6112 27.0244 50.9848 27.4286 51.23 27.91L54.54 34.39C54.7836 34.8706 55.1554 35.2745 55.6143 35.5568C56.0732 35.8392 56.6012 35.9891 57.14 35.99H89.14C89.9154 35.99 90.6591 36.2973 91.2083 36.8446C91.7575 37.392 92.0674 38.1346 92.07 38.91V74.24C92.07 74.6248 91.9942 75.0058 91.847 75.3613C91.6997 75.7167 91.4839 76.0397 91.2118 76.3118C90.9398 76.5839 90.6168 76.7997 90.2613 76.947C89.9058 77.0942 89.5248 77.17 89.14 77.17Z" fill="#2D333E" stroke="#4A5059" stroke-miterlimit="10"/>
<path d="M79.36 37.5C75.6793 37.5 72.0812 38.5915 69.0208 40.6364C65.9604 42.6812 63.5752 45.5877 62.1666 48.9883C60.7581 52.3888 60.3895 56.1306 61.1076 59.7406C61.8257 63.3506 63.5981 66.6666 66.2007 69.2693C68.8034 71.8719 72.1194 73.6443 75.7294 74.3624C79.3394 75.0805 83.0812 74.7119 86.4817 73.3034C89.8823 71.8949 92.7888 69.5096 94.8337 66.4492C96.8785 63.3888 97.97 59.7907 97.97 56.11C97.9713 53.6657 97.4909 51.2452 96.5561 48.9867C95.6213 46.7282 94.2506 44.6762 92.5222 42.9478C90.7938 41.2195 88.7418 39.8487 86.4833 38.9139C84.2248 37.9792 81.8043 37.4987 79.36 37.5Z" fill="#2D333E" stroke="#4A5059" stroke-miterlimit="10"/>
<path d="M92.58 69.63L97.54 74.59" stroke="#4A5059" stroke-width="0.68" stroke-linecap="round" stroke-linejoin="round"/>
<path d="M96.9747 72.1917L95.4337 73.8036C94.743 74.5262 94.7688 75.672 95.4913 76.3627L108.864 89.1464C109.587 89.8371 110.732 89.8113 111.423 89.0888L112.964 87.4768C113.655 86.7542 113.629 85.6085 112.906 84.9177L99.5337 72.1341C98.8112 71.4433 97.6654 71.4691 96.9747 72.1917Z" fill="#4A5059"/>
<path d="M106.87 1.52002V5.83002" stroke="#4A5059" stroke-linecap="round" stroke-linejoin="round"/>
<path d="M104.72 3.67999H109.03" stroke="#4A5059" stroke-linecap="round" stroke-linejoin="round"/>
</svg>
