<?xml version="1.0" standalone="no"?>
<!DOCTYPE svg PUBLIC "-//W3C//DTD SVG 20010904//EN"
 "http://www.w3.org/TR/2001/REC-SVG-20010904/DTD/svg10.dtd">
<svg version="1.0" xmlns="http://www.w3.org/2000/svg"
 width="994.000000pt" height="994.000000pt" viewBox="0 0 994.000000 994.000000"
 preserveAspectRatio="xMidYMid meet">
<metadata>
Created by potrace 1.14, written by Peter Selinger 2001-2017
</metadata>
<g transform="translate(0.000000,994.000000) scale(0.100000,-0.100000)"
fill="#000000" stroke="none">
<path d="M5346 9932 c-4 -3 -18 -8 -33 -10 -59 -8 -209 -126 -256 -202 -11
-19 -24 -37 -28 -40 -4 -3 -43 -54 -88 -115 -44 -60 -86 -117 -93 -127 -7 -9
-38 -51 -68 -92 -136 -188 -215 -295 -237 -321 -7 -7 -13 -16 -13 -19 0 -5
-52 -77 -85 -118 -8 -9 -22 -29 -32 -45 -10 -15 -26 -37 -36 -48 -10 -11 -28
-36 -40 -55 -12 -19 -32 -46 -44 -60 -13 -14 -23 -28 -23 -31 0 -3 -8 -15 -17
-27 -10 -11 -25 -30 -33 -42 -8 -12 -42 -59 -75 -104 -33 -44 -107 -146 -165
-226 -57 -80 -108 -146 -112 -148 -4 -2 -8 -8 -8 -14 0 -5 -6 -15 -12 -23 -7
-7 -21 -23 -30 -36 -70 -100 -149 -207 -162 -221 -9 -10 -14 -18 -11 -18 3 0
1 -6 -5 -12 -39 -46 -54 -66 -68 -90 -9 -16 -20 -28 -24 -28 -4 0 -8 -5 -8
-10 0 -6 -5 -16 -10 -23 -12 -15 -59 -76 -82 -109 -9 -12 -81 -112 -160 -220
-79 -109 -161 -223 -183 -253 -22 -31 -46 -64 -53 -73 -7 -9 -47 -64 -89 -122
-42 -58 -100 -137 -130 -177 -29 -40 -53 -77 -53 -82 0 -5 -3 -11 -8 -13 -4
-1 -28 -32 -54 -68 -26 -36 -54 -72 -63 -81 -8 -9 -15 -19 -15 -23 0 -5 -11
-22 -25 -40 -38 -47 -38 -47 -75 -101 -19 -27 -40 -56 -47 -63 -7 -7 -20 -26
-30 -42 -9 -17 -21 -30 -25 -30 -4 0 -8 -5 -8 -11 0 -6 -10 -24 -22 -39 -13
-15 -30 -37 -38 -50 -8 -13 -25 -34 -37 -48 -13 -13 -20 -28 -17 -33 3 -5 1
-9 -4 -9 -5 0 -24 -21 -42 -47 -19 -27 -40 -54 -46 -61 -7 -6 -16 -21 -19 -32
-3 -11 -10 -20 -13 -20 -4 0 -16 -16 -26 -35 -11 -19 -23 -35 -27 -35 -4 0
-19 -20 -33 -44 -14 -25 -32 -51 -39 -58 -7 -7 -28 -35 -47 -63 -45 -64 -52
-73 -72 -96 -10 -10 -18 -22 -18 -25 0 -8 -53 -78 -62 -82 -5 -2 -8 -10 -8
-17 0 -7 -4 -15 -8 -17 -7 -3 -111 -144 -137 -186 -5 -9 -14 -21 -20 -28 -5
-6 -17 -22 -25 -34 -8 -13 -24 -35 -36 -49 -20 -26 -176 -243 -204 -284 -21
-32 -113 -160 -123 -172 -34 -41 -267 -377 -267 -385 0 -5 -4 -10 -9 -10 -12
0 -22 -51 -28 -152 -10 -166 41 -300 150 -393 48 -41 67 -53 172 -107 l60 -32
1355 -2 c1629 -3 1657 -4 1646 -43 -3 -9 -8 -43 -11 -76 -3 -33 -7 -67 -9 -75
-3 -8 -7 -40 -11 -71 -3 -31 -7 -66 -9 -76 -3 -11 -7 -42 -10 -69 -7 -55 -15
-109 -20 -139 -2 -11 -7 -45 -10 -75 -4 -30 -8 -66 -11 -80 -2 -14 -7 -45 -10
-70 -3 -25 -8 -56 -11 -70 -2 -14 -6 -45 -9 -70 -3 -25 -7 -56 -10 -70 -3 -14
-7 -45 -10 -69 -3 -23 -8 -57 -11 -75 -3 -17 -7 -44 -9 -61 -3 -31 -15 -116
-21 -150 -2 -10 -6 -37 -9 -60 -15 -114 -27 -193 -31 -215 -3 -14 -7 -43 -9
-65 -5 -39 -12 -95 -20 -145 -2 -14 -7 -45 -10 -70 -3 -25 -8 -52 -10 -60 -2
-8 -7 -44 -10 -80 -3 -36 -8 -72 -10 -80 -3 -8 -7 -35 -10 -60 -3 -25 -7 -61
-10 -80 -3 -19 -8 -53 -10 -75 -3 -22 -7 -51 -10 -65 -3 -14 -8 -49 -10 -78
-3 -29 -7 -65 -11 -80 -3 -15 -7 -45 -9 -67 -2 -22 -6 -62 -10 -90 -3 -27 -8
-72 -11 -100 -3 -27 -7 -108 -8 -180 -3 -100 0 -138 12 -165 9 -19 16 -40 18
-46 3 -19 75 -116 108 -146 83 -77 188 -118 316 -123 105 -4 173 10 255 51 65
33 98 64 168 154 31 41 64 82 72 91 8 9 15 21 15 27 0 5 4 12 8 14 4 2 49 59
100 128 51 69 99 133 107 143 8 9 15 19 15 22 0 4 92 129 118 160 5 6 17 24
28 40 10 17 21 32 24 35 3 3 24 31 48 63 38 52 63 85 147 202 16 22 33 42 37
43 4 2 8 8 8 12 0 5 21 37 48 72 26 35 55 75 64 88 24 34 166 227 261 356 42
58 77 109 77 114 0 4 4 10 8 12 5 1 33 37 62 78 30 41 57 77 60 80 3 3 25 34
49 70 25 36 48 67 51 70 4 3 39 52 80 110 40 58 79 110 85 115 6 6 17 19 23
30 9 18 137 193 159 220 5 6 39 53 76 105 113 161 384 534 401 553 9 9 16 21
16 27 0 5 6 13 13 17 6 4 17 15 22 24 21 34 95 137 108 150 7 8 23 31 36 52
13 21 28 43 35 50 6 6 56 75 111 152 54 77 104 145 110 150 7 6 17 20 24 33 7
13 41 61 77 108 35 46 64 88 64 94 0 5 5 10 10 10 6 0 10 7 10 15 0 8 3 15 8
15 4 0 18 17 32 38 14 20 29 42 35 49 5 6 21 28 35 48 14 19 35 48 47 63 13
15 23 32 23 38 0 7 7 14 15 18 8 3 15 12 15 21 0 8 4 15 8 15 4 0 16 13 25 30
10 16 23 35 30 42 11 12 138 186 177 245 30 44 214 298 219 303 3 3 11 13 16
22 6 9 71 101 145 204 74 103 150 208 168 233 18 25 41 58 50 73 9 16 20 28
25 28 4 0 7 4 7 10 0 8 22 41 85 125 8 10 15 24 16 30 0 5 3 21 6 35 8 32 9
238 1 265 -39 144 -123 238 -288 324 l-85 44 -1390 3 c-1303 2 -1552 5 -1596
19 -10 3 -16 13 -15 23 2 9 7 44 11 77 4 33 9 69 10 80 2 11 6 43 10 70 7 59
13 101 19 135 3 14 7 50 10 80 4 30 8 66 11 80 5 26 12 75 20 138 3 20 10 66
15 102 6 36 12 81 14 100 3 19 5 35 6 35 1 0 3 14 5 30 7 67 15 128 25 192 6
37 13 86 16 108 3 22 7 49 9 61 6 28 18 125 19 147 0 9 3 17 6 17 3 0 5 12 5
28 1 15 4 50 8 77 5 28 10 68 13 90 2 22 7 56 10 75 3 19 7 48 9 63 2 15 7 44
9 65 3 20 8 53 10 72 3 19 7 49 10 65 2 17 8 55 11 85 4 30 8 62 10 70 1 8 6
42 10 75 4 32 8 67 10 76 2 9 6 40 10 70 3 30 8 65 10 79 2 14 7 50 10 80 4
30 9 69 11 85 13 77 35 300 38 380 1 29 -5 68 -16 93 -9 23 -18 46 -19 50 -9
44 -71 133 -125 180 -71 61 -74 63 -74 56 0 -4 -8 -1 -17 8 -36 29 -136 51
-244 54 -59 1 -110 0 -113 -4z"/>
</g>
</svg>
