<?xml version="1.0" standalone="no"?>
<!DOCTYPE svg PUBLIC "-//W3C//DTD SVG 20010904//EN"
 "http://www.w3.org/TR/2001/REC-SVG-20010904/DTD/svg10.dtd">
<svg version="1.0" xmlns="http://www.w3.org/2000/svg"
 width="994.000000pt" height="994.000000pt" viewBox="0 0 994.000000 994.000000"
 preserveAspectRatio="xMidYMid meet">
<metadata>
Created by potrace 1.14, written by Peter Selinger 2001-2017
</metadata>
<g transform="translate(0.000000,994.000000) scale(0.100000,-0.100000)"
fill="#000000" stroke="none">
<path d="M2000 9909 c-23 -17 -54 -44 -69 -59 -80 -84 -111 -119 -111 -123 0
-3 -15 -21 -32 -39 -35 -37 -52 -56 -167 -188 -41 -47 -85 -95 -98 -107 -13
-12 -23 -25 -23 -28 0 -3 -10 -16 -22 -29 -13 -12 -50 -53 -83 -91 -33 -38
-69 -78 -80 -91 -45 -49 -141 -159 -165 -187 -14 -16 -41 -46 -60 -67 -19 -21
-57 -64 -85 -96 -27 -32 -62 -71 -77 -86 -16 -16 -28 -31 -28 -33 0 -3 -15
-20 -32 -38 -31 -32 -108 -118 -158 -177 -12 -14 -38 -43 -58 -66 -20 -22 -59
-66 -87 -98 -27 -33 -55 -64 -60 -70 -41 -45 -95 -116 -109 -143 -23 -45 -20
-76 9 -101 14 -12 25 -20 25 -18 0 2 17 -2 37 -10 31 -11 415 -13 2128 -14
1150 0 2108 -3 2130 -6 47 -6 81 -35 91 -78 4 -17 9 -1757 10 -3866 1 -2109 4
-3842 7 -3850 2 -8 8 -30 12 -47 4 -18 11 -33 16 -33 4 0 9 -7 11 -17 2 -9 19
-22 38 -28 30 -11 40 -10 73 7 40 20 130 106 209 198 25 30 54 65 65 76 10 12
36 43 58 69 22 26 54 62 70 80 17 18 48 54 70 79 22 26 51 59 65 75 26 29 111
127 145 169 11 13 31 36 45 51 21 23 102 116 162 186 9 11 32 38 52 60 19 22
43 49 53 61 60 70 130 151 146 166 9 10 17 20 17 23 0 3 17 23 38 45 20 21 46
50 57 63 67 79 199 230 222 254 12 12 27 31 35 41 7 10 39 48 70 83 31 35 66
75 78 89 58 67 112 130 136 155 52 57 49 -54 56 1867 2 423 7 768 11 768 5 0
5 5 1 12 -10 17 -11 268 -1 268 5 0 5 5 2 11 -11 17 -13 59 -3 65 4 3 6 10 2
15 -8 13 -8 154 0 167 3 6 2 14 -4 17 -7 5 -8 11 -1 19 6 7 6 18 1 25 -4 8 -6
20 -3 26 8 23 9 126 0 132 -5 3 -5 12 -2 22 4 9 9 435 11 946 9 2148 12 2614
17 2622 3 5 2 15 -3 23 -5 8 -5 21 0 31 5 9 7 19 4 22 -3 3 -5 90 -4 194 3
404 2 519 -3 533 -3 8 -7 24 -9 34 -2 10 -16 28 -31 40 l-28 21 -2373 3 -2373
2 -43 -31z"/>
<path d="M7625 9925 c-47 -24 -82 -57 -97 -95 -11 -29 -13 -214 -12 -1125 1
-803 4 -1098 13 -1120 22 -58 67 -32 181 101 19 22 58 67 85 99 28 33 68 80
91 105 22 25 83 95 134 155 52 61 99 115 105 121 5 6 30 35 55 64 25 30 52 61
60 70 8 8 28 31 44 50 32 39 127 148 166 192 14 15 39 44 55 64 33 40 54 64
103 118 17 19 32 41 32 47 0 7 3 9 7 6 3 -4 16 6 27 21 12 15 31 39 43 52 11
14 54 63 93 110 40 47 80 92 89 101 9 10 32 36 51 60 19 23 46 54 58 68 13 14
43 48 65 75 23 26 47 53 52 60 32 37 125 145 141 164 10 13 30 36 44 51 14 14
48 53 75 85 28 33 59 70 70 82 36 41 66 83 67 91 0 4 4 13 8 18 14 17 20 67
10 85 -5 10 -24 23 -41 29 -21 7 -312 11 -937 11 -783 0 -911 -2 -937 -15z"/>
<path d="M9490 8912 c-16 -5 -72 -62 -135 -138 -22 -26 -50 -58 -62 -71 -11
-13 -35 -42 -53 -63 -18 -21 -42 -50 -53 -63 -22 -23 -94 -107 -152 -174 -16
-20 -41 -48 -55 -63 -14 -15 -45 -51 -70 -80 -25 -29 -55 -64 -67 -76 -13 -13
-23 -26 -23 -29 0 -3 -8 -13 -17 -23 -10 -10 -40 -44 -68 -76 -27 -32 -65 -73
-82 -92 -18 -19 -33 -37 -33 -40 0 -3 -10 -15 -22 -28 -13 -13 -43 -47 -68
-75 -25 -29 -61 -71 -81 -94 -20 -23 -47 -55 -60 -70 -13 -16 -39 -44 -56 -63
-18 -19 -33 -37 -33 -39 0 -3 -8 -13 -17 -23 -21 -22 -117 -131 -160 -182 -16
-19 -41 -48 -54 -63 -13 -16 -35 -41 -49 -56 -14 -15 -45 -51 -70 -81 -25 -29
-58 -68 -75 -86 -16 -18 -37 -42 -45 -52 -8 -11 -33 -40 -55 -64 -22 -25 -59
-67 -82 -94 -23 -27 -55 -64 -72 -83 -17 -19 -41 -55 -53 -80 l-23 -46 -1
-1750 c-1 -1790 -1 -1786 35 -1853 6 -11 22 -27 37 -37 58 -38 139 21 319 231
28 32 59 68 70 80 11 12 36 41 55 63 19 23 54 62 78 86 23 25 42 47 42 50 0 2
12 17 28 33 15 16 52 57 82 92 30 35 60 68 65 74 6 6 55 63 110 126 55 63 107
122 115 130 8 9 40 44 70 79 30 35 66 75 80 91 14 15 45 51 70 80 25 29 56 64
70 79 14 15 43 47 65 73 98 113 151 173 165 188 8 9 42 47 75 85 69 80 108
124 150 171 32 35 108 122 145 164 28 33 58 90 64 126 3 16 6 254 5 529 0 275
0 507 0 515 0 21 1 142 0 160 0 8 0 44 0 80 1 36 1 72 0 80 0 8 0 44 0 80 1
36 0 72 0 80 -1 16 -1 1415 0 1440 0 17 1 138 0 160 0 8 0 44 0 80 1 36 1 72
0 80 0 8 0 44 0 80 1 36 1 74 0 85 0 11 0 83 0 160 0 77 -1 149 -4 160 -2 11
-4 23 -4 26 -1 11 -25 17 -41 11z"/>
</g>
</svg>
